<?xml version="1.0" encoding="UTF-8"?>
<!DOCTYPE svg PUBLIC "-//W3C//DTD SVG 1.1//EN" "http://www.w3.org/Graphics/SVG/1.1/DTD/svg11.dtd">
<svg xmlns="http://www.w3.org/2000/svg" version="1.1" width="96px" height="96px" style="shape-rendering:geometricPrecision; text-rendering:geometricPrecision; image-rendering:optimizeQuality; fill-rule:evenodd; clip-rule:evenodd" xmlns:xlink="http://www.w3.org/1999/xlink">
<g><path style="opacity:0.986" fill="#9c27b0" d="M 38.5,7.5 C 61.3294,4.54685 77.1628,13.5469 86,34.5C 91.7177,58.8973 83.2177,76.064 60.5,86C 36.1027,91.7177 18.936,83.2177 9,60.5C 3.42409,33.977 13.2574,16.3104 38.5,7.5 Z"/></g>
<g><path style="opacity:1" fill="#faf5fb" d="M 52.5,25.5 C 55.4073,26.7341 57.7407,28.7341 59.5,31.5C 54.5,36.8333 49.5,42.1667 44.5,47.5C 49.5,52.8333 54.5,58.1667 59.5,63.5C 57.1831,65.316 55.0165,67.316 53,69.5C 45.652,62.319 38.4854,54.9857 31.5,47.5C 39.2451,40.7578 46.2451,33.4245 52.5,25.5 Z"/></g>
</svg>
