<?xml version="1.0" encoding="UTF-8"?>
<svg version="1.1" xmlns="http://www.w3.org/2000/svg" width="100%" height="100%">
<path d="M0 0 C4.71513218 2.29405004 8.09961906 5.66265221 11 10 C11 10.66 11 11.32 11 12 C11.66 12 12.32 12 13 12 C13.2784375 10.948125 13.2784375 10.948125 13.5625 9.875 C15.76564444 5.46871112 19.59001489 2.20499255 24 0 C29.42621447 -0.49550761 34.34669591 -0.73480182 39.375 1.5 C46.84544212 8.61470678 52.42365913 17.96779572 53.17700195 28.46679688 C53.53245249 44.42950005 53.63335259 58.09783438 43 71 C37.70323872 75.81523752 34.18191529 76.46035063 27.12109375 76.41796875 C21.35190226 75.64537364 17.87907831 72.27715185 14.28515625 67.921875 C13 66 13 66 13 64 C12.34 64 11.68 64 11 64 C10.7215625 65.051875 10.7215625 65.051875 10.4375 66.125 C8.23435556 70.53128888 4.40998511 73.79500745 0 76 C-5.42621447 76.49550761 -10.34669591 76.73480182 -15.375 74.5 C-22.84544212 67.38529322 -28.42365913 58.03220428 -29.17700195 47.53320312 C-29.53245249 31.57049995 -29.63335259 17.90216562 -19 5 C-13.03075616 -0.42658531 -7.95472298 -1.06527579 0 0 Z " fill="#F7F7F5" transform="translate(35,10)"/>
<path d="M0 0 C4.71513218 2.29405004 8.09961906 5.66265221 11 10 C11 10.66 11 11.32 11 12 C11.66 12 12.32 12 13 12 C13.2784375 10.948125 13.2784375 10.948125 13.5625 9.875 C15.76564444 5.46871112 19.59001489 2.20499255 24 0 C29.42621447 -0.49550761 34.34669591 -0.73480182 39.375 1.5 C46.84544212 8.61470678 52.42365913 17.96779572 53.17700195 28.46679688 C53.53245249 44.42950005 53.63335259 58.09783438 43 71 C37.70323872 75.81523752 34.18191529 76.46035063 27.12109375 76.41796875 C21.35190226 75.64537364 17.87907831 72.27715185 14.28515625 67.921875 C13 66 13 66 13 64 C12.34 64 11.68 64 11 64 C10.7215625 65.051875 10.7215625 65.051875 10.4375 66.125 C8.23435556 70.53128888 4.40998511 73.79500745 0 76 C-5.42621447 76.49550761 -10.34669591 76.73480182 -15.375 74.5 C-22.84544212 67.38529322 -28.42365913 58.03220428 -29.17700195 47.53320312 C-29.53245249 31.57049995 -29.63335259 17.90216562 -19 5 C-13.03075616 -0.42658531 -7.95472298 -1.06527579 0 0 Z M15 17 C13.5393715 19.64738916 13 20.89448334 13 24 C12.34 24 11.68 24 11 24 C10.87625 23.195625 10.7525 22.39125 10.625 21.5625 C10.41875 20.716875 10.2125 19.87125 10 19 C9.34 18.67 8.68 18.34 8 18 C5.97582221 18.75024031 3.97945549 19.57615675 2 20.4375 C-3.99118996 22.82208608 -8.62352567 23.67120782 -15 23 C-16.18529297 22.88011719 -16.18529297 22.88011719 -17.39453125 22.7578125 C-19.267548 22.54131669 -21.13486948 22.27631563 -23 22 C-26.81900874 35.72695912 -26.19439283 49.08600397 -20 62 C-17.16257258 66.1971574 -14.20562536 69.19624976 -10 72 C-5.97007719 72.45621768 -3.59852487 72.29315504 0.0625 70.5 C6.60233254 64.93418507 9.85433124 59.53325696 11 51 C11.66 51 12.32 51 13 51 C13.07476562 51.556875 13.14953125 52.11375 13.2265625 52.6875 C14.57486005 60.51291324 17.93379647 65.44483039 24 70.5 C27.45294996 72.22647498 29.19601769 72.63399705 33 72 C40.57509521 68.21245239 44.60976875 61.8518838 47.375 54.0625 C50.35457244 43.41052854 49.96083731 32.57611088 47 22 C46.071875 22.165 45.14375 22.33 44.1875 22.5 C32.89529828 23.99655685 25.18136192 22.09068096 15 17 Z " fill="#FEB404" transform="translate(35,10)"/>
<path d="M0 0 C4.35530464 3.76139947 6.51430725 6.51891959 7.25 12.3125 C6.94755816 17.75645316 4.66570063 21.62833178 0.625 25.3125 C-4.58490675 27.23790032 -9.88649231 27.19708963 -15.125 25.375 C-18.78802606 21.92744606 -21.01193282 18.13844653 -21.44921875 13.0625 C-21.11017672 7.32784626 -19.37527854 4.30840512 -15.25 0.375 C-10.61928552 -3.13795581 -4.88866328 -2.44433164 0 0 Z " fill="#1D69BF" transform="translate(71.25,39.625)"/>
<path d="M0 0 C4.64586577 1.73081274 7.47824791 3.70368162 10 8 C11.1917561 12.41602775 11.36470496 15.8844319 9.9375 20.25 C7.63140664 23.52316478 5.65035609 26.2739765 2 28 C-3.10604392 28.86225411 -7.40522225 28.86383795 -12 26.375 C-15.8092606 21.85150304 -17.60674057 17.85574173 -17.34765625 11.953125 C-16.51449838 7.2724628 -13.69071338 4.58326908 -10.1875 1.625 C-6.37985365 -0.31615304 -4.22575274 -0.52821909 0 0 Z " fill="#1E69BF" transform="translate(33,38)"/>
<path d="M0 0 C3.05917167 0.33990796 4.80401508 0.85698398 7.3125 2.6875 C9 5 9 5 9.5 7.9375 C8.89004096 11.67349911 7.61276889 13.31038497 5 16 C2.11138291 17.44430855 0.20352299 17.37688506 -3 17 C-5.875 14.75 -5.875 14.75 -8 12 C-8 10.68 -8 9.36 -8 8 C-4.535 7.505 -4.535 7.505 -1 7 C-0.67 4.69 -0.34 2.38 0 0 Z " fill="#212427" transform="translate(30,44)"/>
<path d="M0 0 C2.93167219 0.31693753 4.58982661 0.63225834 6.8125 2.625 C8.48520386 5.97040771 8.46126687 8.30986503 8 12 C5.84524379 15.27522945 4.3358577 15.90229594 0.5625 17 C-3 17 -3 17 -5.875 15.4375 C-8.36763692 12.57829882 -8.7452901 10.73574522 -9 7 C-6.36 7 -3.72 7 -1 7 C-0.67 4.69 -0.34 2.38 0 0 Z " fill="#212426" transform="translate(64,44)"/>
<path d="M0 0 C1.32278481 5.41139241 1.32278481 5.41139241 -0.0625 7.9375 C-2.91093248 9.49954362 -4.93504903 8.74921024 -8 8 C-9.32278481 2.58860759 -9.32278481 2.58860759 -7.9375 0.0625 C-5.08906752 -1.49954362 -3.06495097 -0.74921024 0 0 Z " fill="#EDF0F3" transform="translate(29,43)"/>
<path d="M0 0 C3.29714793 0.32971479 4.6226839 0.6226839 7 3 C6.625 6.125 6.625 6.125 6 9 C0.56559513 10.32841008 0.56559513 10.32841008 -1.9375 8.875 C-3 7 -3 7 -2.8125 4.4375 C-2 2 -2 2 0 0 Z " fill="#F1F2F4" transform="translate(57,42)"/>
<path d="M0 0 C0.66 0.33 1.32 0.66 2 1 C0.02 3.31 -1.96 5.62 -4 8 C-4 4.09161134 -2.49432124 2.88405893 0 0 Z " fill="#3C7ECA" transform="translate(56,40)"/>
</svg>
