<?xml version="1.0" encoding="UTF-8" standalone="no"?>
<svg xmlns="http://www.w3.org/2000/svg" xmlns:xlink="http://www.w3.org/1999/xlink" width="403.88" height="403.00269">
  <defs>
    <radialGradient id="a" cx="637.55859" cy="59.829102" r="239.4104" gradientUnits="userSpaceOnUse">
      <stop offset=".0562" stop-color="#fff"/>
      <stop offset=".2672" stop-color="#fafbfc"/>
      <stop offset=".3511" stop-color="#eff3f5"/>
      <stop offset=".4124" stop-color="#e2e8eb"/>
      <stop offset=".4627" stop-color="#cfd8dd"/>
      <stop offset=".5063" stop-color="#b9c5cc"/>
      <stop offset=".5452" stop-color="#9fadb5"/>
      <stop offset=".5805" stop-color="#82929b"/>
      <stop offset=".6122" stop-color="#63757e"/>
      <stop offset=".6348" stop-color="#4b5c66"/>
    </radialGradient>
    <radialGradient id="b" cx="671.14062" cy="84.121101" r="146.3056" gradientUnits="userSpaceOnUse">
      <stop offset="0" stop-color="#d7df23"/>
      <stop offset=".30000001" stop-color="#8cc63f"/>
      <stop offset="1" stop-color="#364d17"/>
    </radialGradient>
    <radialGradient id="c" cx="671.59961" cy="84.163597" r="145.88229" gradientUnits="userSpaceOnUse">
      <stop offset="0" stop-color="#d7df23"/>
      <stop offset=".4045" stop-color="#8cc63f"/>
      <stop offset="1"/>
    </radialGradient>
    <radialGradient xlink:href="#a" id="d" cx="741.81171" cy="59.829109" r="239.4104" fx="741.81171" fy="59.829109" gradientTransform="matrix(-2.54337 0 0 -3.46666 3141.0339 956.10096)" gradientUnits="userSpaceOnUse"/>
    <radialGradient xlink:href="#b" id="e" cx="615.2168" cy="808.64862" r="187.63901" fx="615.2168" fy="808.64862" gradientTransform="matrix(2.30262 0 0 2.4039 -218.80802 -1105.0962)" gradientUnits="userSpaceOnUse"/>
    <radialGradient xlink:href="#c" id="f" cx="671.59961" cy="84.163597" r="145.88229" gradientTransform="translate(-1682.3483 -45.34434) scale(2.75797)" gradientUnits="userSpaceOnUse"/>
  </defs>
  <g transform="translate(-188.46754 -330.86084)">
    <g transform="translate(-715.93831 -350.16028)">
      <path fill="url(#d)" d="M1307.4059 882.52387c0 111.28407-90.2077 201.49993-201.5028 201.49993-111.28959 0-201.49725-90.21586-201.49725-201.49993 0-111.28406 90.20766-201.50275 201.49725-201.50275 111.2951 0 201.5028 90.21869 201.5028 201.50275z"/>
      <path fill="url(#e)" d="m1060.4434 704.50391 5.6287-1.27111 2.6359-1.35838 3.3634-.7805-.4673-.62184-2.0437-.0777.3115-.51293 3.1182-.4576 1.4019.30912.5609-.62119 5.3542-1.27407.7927-.88242 4.4373 1.27733 3.4869-.43007 3.5572-.93716 4.6618.58021-1.2087.44787 2.0272.33179 1.3211-.13614 1.6438-1.11985.055.90994-.6521-.46937-.8638.66768 2.8587-.27094-2.7542.32408 6.3881.41051-.449-.38769 2.3146-.44515-1.1573.0299.9739-.44015-.8899-.66361 2.232.19962.3397-.59206 1.9761.74095 2.5165-.13186.9321.77249 2.525-1.38781 2.2055 2.06492-1.4106.003.9713.54009-1.1304.0442.2972.80626 2.4743.43385 1.3198 1.01748 2.45-.94275 2.8268.76521 1.0595.66611-.8206.26804 2.6991.99914 2.6986.002-.6017 1.10984.932-.19378.058.63803 1.3883.41578.8473-.26895-1.1815-.40486 4.9034 1.02877 1.559-.13324-2.9499.35286-8.046-.13078-.01 1.11244-.4793-.70781-.7338.30638.6341 1.91317 3.6503.89617-1.4615.22136 1.8916 1.16514-1.9495-.27574.686 1.03887 3.0137.10017 1.4853-.61166 1.3751.78352.3728-.78924.1676.57824 2.956.73634-.9519.10635 1.7285 1.08501.8189-.0161-.8498-.47685 6.1069 2.46622 1.436-.33535-.084.66655 2.0248-1.22137 4.4878 3.40611 3.092-.54972.5974-1.903 5.3554-.52734-.4683.88093-2.4736-.0687 1.6513.4192-4.043-.43783 1.0778 1.08004-.3072 1.96785 1.0246.56118.8676-.38474.8273 1.26953 1.6066-1.74204.4882 1.5721-4.4414.97226 1.8692-.17975 3.3271 1.26645 1.8526-.86923 4.6126.4864-1.438-1.58614.095-1.22379 1.5549-.3877 1.8781.53637-.03-.97103.2184 1.26674-3.2229.32378 1.6473 1.41605 3.1129.0483 5.9154 2.4742.2435 2.39146-2.16-2.28175-5.5372-1.80992-1.0554.73709-5.9815-.39815-1.402.63845-4.253-.69788-.1532.77248.6624 1.38325 4.6905.8547 2.0754 1.20918 4.9151.39641-.4087-.96504 1.3831-.71518 2.9347 1.0346-2.173 1.76758-.018-.48146-.9802 3.74549 1.1213.67043 2.2165-.36386.5889 1.05169 1.2623.38214-1.9651.19964 1.809 1.6839.2493 1.58389 1.3671.74595v1.32358l-2.0406-.84973-.6704-.91929.126.57325 2.2652 1.8364-.887-.15518 2.1949 3.67145 1.0338-.0771.03 1.09375 2.2093 1.00009.1266 1.45094-2.0866.22129-1.0692-1.96173-1.0496-.23514-2.1608 2.0531 1.4456-.28283 7.4377 2.99423-2.1089.9663 1.3992 2.06155 1.388 1.70188 3.1959.70142-1.4861 1.47504.5761.75893-.7091-.75318-1.4488.92492 1.2522.99633 1.8211-.74593 1.3709 1.41835-3.222 1.29982-2.8707-.95567-1.2767-1.36097-1.9308 1.01837-.2121-.91317-3.0059.35013 5.7819-4.61873-2.6931-3.44336-3.6807-.0444-4.7648 1.99707-.7353 1.26123 1.1202 1.06401-1.4675-1.16897-.5248 1.0008-1.0578-.48278.4558-.72663-1.0865.42032.8877 1.22623-1.3971.18445.3577.9621-2.0006-.19253 1.0061-.99468-.6902-1.13803-2.3448.65682.9352 1.53966-1.3752-1.39335-.8812.33971 1.7998 1.52331.039.60191-1.7798-1.17559 2.0142 2.62342-2.074-1.95801-.9704.6427 2.4164 2.63734-2.0574.64723 2.0293.74677-1.312.0711 1.334 2.36419-1.7953-1.66267 1.222 1.55574-1.0907-.84653.05.90307 1.5486.41262-1.6098.44207 1.9108 1.96148-.4139 1.1981 1.2725-.80971-1.037 1.20897 1.6921 1.0444-1.5994-.61424.016.94739.8556-.071-.685.77354 1.5897-.0708-.3801 1.81725 1.3496-.46318-1.1936 1.75282.8138-.006.7948 2.1262.5955-1.17572-.6142 1.67278 1.078.18289-.7056.16854 1.2456 2.13615.5692-.92205-.4254 2.28986.6134-.85486-.046 1.24377 1.0425.21767-.2692.8199-.9836-.5209.9159 3.47068 1.111-.51444-.3901-2.07769 1.2251 1.96044-.8152 1.21633-.8482-.60496-.6728 1.43323 1.5276 1.2965-1.2784.18231 1.4475.32485-2.3437.43974 1.8691-.21037-1.8258 1.71912 2.1589.55566-1.1266-.23551.3843.71772-.9723.16124.8028.13894-1.6958.5613.7499.73346 1.9788-1.20824-1.9339 1.2336.4354.95369 1.287-.32516-.9619.7636.9419-.39034.054 1.04759 1.3174-1.25076-.224-.77051 1.2556.2343-.4716-1.08895.7365.579.165 1.45245-1.2619-.44971-1.6147 1.64491 1.0381-.004-.6372.67066.9844.46615.2078-.93295.023 1.46702.8617.43881-.1692-.95712.8342 1.53867.5759-2.93078-.1975 4.17184 1.1113.38159.5231-1.59794.1592 1.87447 1.019-.54827.014.88325-1.3197.0671 1.1507 1.24495 3.0108.37138 1.1853-1.37638-.7537-3.8801 1.2177-.61394-1.6074-2.48542 4.1829 3.63032.3682-.68028 1.0365 1.45197-.5782-1.39585 1.2561 1.85208 4.076 1.73266.068 1.22159 2.5867 2.07369 1.6399-1.43337-1.2945-2.54135 1.5232-.95772-2.4162-4.35276-2.8998-2.24532.5398-.52476-1.1836.34304.9668-1.6351-.8836-1.1166 1.2346.65316-.4691-1.91439-.9662.26885.093-1.74997-3.2407-.9642-.9564.57442-5.6275-5.87833 1.0014.16016-.7237-4.51468-1.0968-2.20496-2.7716-1.5573.7618-.12741-1.5837-1.16712 1.059-.0853-.899-.96374 1.4324-1.48166 2.9565.84852 3.2282 8.5163 4.1119 2.26259 2.1088 2.34257 1.9515-.19728.029-.91764 1.3692 1.44782 1.5278-7.85881 1.093.82921 2.2117-.996-.9552 2.70206.9701 1.00193-2.3246 1.74683-.4631 3.2462 2.5668 1.73467.7599-.84247 2.7577 2.64456.1049 1.4686-2.9965-.72811-.2933 1.42221 2.0508 3.24094 4.2648 3.4916-.733.81785-1.3975-2.51219 1.1316 2.14208-.2197 1.11422.6479.74005.4315-.68824.066 2.31035-.5154-1.61531-.3973 1.95666-2.1032-.28699-1.7329 5.58251.8162 1.2713-3.8481-.54689-1.6303 3.50681-.6411-1.42306-1.1327 1.19543-2.0672-.67164-1.756-2.53622.1116-3.33116-1.6456.0798-1.6936-3.22966-1.1385 3.55109 4.755 6.79452.1729-.6828 1.3962.69579-.1958.94619 3.3584.87592-2.3575.16204.8937 1.62942-1.5044-.43035-.9409 1.22349 1.2333.696-2.598 1.02281-.1567 1.44315 1.7467.91899-.3428 1.36907-2.0875-1.39842.8479 3.61875 1.4786.11071-1.5659 1.70917 1.6449-.26382-3.4269 3.98955 1.3846 1.99411-1.3654 4.17974-4.1233.55688 2.8636 2.84949-2.2204 1.64621-1.3429-.85948-2.6158 2.6739 1.5792.26798-.9587.31023 1.2341 1.314 4.2369-.88592 2.7002 2.62685 1.6325-.13726.7317 2.08514.483.27587 2.2854 7.21072-11.3846 5.02465-1.781-.4488-2.588 3.79119 2.4333 1.72701 2.2502 7.48733-.1196 5.03708 1.0653-1.20352v2.18554l1.4115-.53077-.5077.28424 1.1845 4.62754 4.762-2.91832 4.4696 2.96377 1.9148-3.57894 5.1687-2.50857.487-3.19213 1.4414-1.19068-.5434-2.55652.9972-2.11935-1.5621-.70718-.7438-2.00087.4562-5.37438 3.018-5.18524-2.0079-2.62571-.027-1.82978.9305-1.68976 4.6638-.78998 1.951-7.28436 3.223-.38583 4.4104 3.43727 11.6492.63372 3.014 2.59789.6096 3.26969.8397-.36128-.7918-3.3532.5059-1.49992-2.443-1.04033-.6721-2.49734 1.6771-.97709 1.6474.67529-.4278-1.22033-6.2533-.0837-.5918-1.54337-2.2914 1.49571-4.6838-2.75827-3.1567-.28148-2.7074-3.07676 1.2689-2.92202 2.6045 2.45189-.1183-2.34109 5.6292 3.20312 1.5355-.97887 2.3352.39415-1.3675.54111 3.4576-1.02353 2.4927.68134 2.3651 4.3098 4.8134 1.93458.3501-.84536-.085 1.21743 1.4191.76616 3.0951-2.82978.014 1.12767-2.526 1.6095.3451 1.43055 2.7496 1.94783.167-1.25603 1.6563 1.19817-.5799-1.40266 1.4199.11908-2.7429-2.33834 1.2587-.913-1.5154-.39541.3362-1.2898 1.398.26789-.9424-1.48392-3.2887.54934.3526-1.25865-.831-.74627.8554-.17415-3.5169-2.30103.073-.98331 2.6511.31584-1.1044-.79055 1.1946-.49655-2.0152-.571 1.0764-2.84363 2.587-1.63725.5973 2.57659-.567-4.54892 1.3972-2.37204-4.2965-1.63572-.3578.70377-1.2116-4.74866-3.1103-4.08481.7464.47402.1528-1.33204-2.2681-2.41222.6206.3764-.3846-1.30263.4114 1.38126-.5336-2.30262-1.0163-.24921 1.0077.2339-.9086-1.53878.1225-2.60284 1.3176.26705-.925 1.16582.7368-.43053.2335.75889 1.5889-2.42726.842.61066.2098 2.86448.3949-1.22238 2.1885 1.75962.8736-.46563-.6818-6.39269-.5279 1.98032-2.4715-.94486 2.5161.98975-.5009.57009-1.6762-.50273-1.0455-2.48195.988 1.31783-.8601-2.70659.2015-6.3409 1.208 2.29794-.5472 1.26821 2.1082.0959-.7064-.003 1.791 3.08111-.063 1.85783 8.2309-2.215 2.2301 1.40751.9335 1.65966.5191 3.09464-.8608 3.02717-1.9004 2.47282-2.8469.24728-1.0281 2.86303.3531 5.70161-2.1088 2.96134.9939.9264.816-.88019-.7347 1.73411.6169.71307-2.3659 3.42987.3758 2.23271.8315 1.29786.7543-1.64461 1.6274 2.77947.9003-.19114-.2675 1.16412-1.025-.56132.625 1.40452 1.7008-.89745.3616 1.25816 1.5107.0391.1379 1.38136.9618-2.02364-.2223 2.59225.6973-2.34205 2.7037-.0957.5657-1.40943-1.0801-2.10497.5045-.89434 3.0633-.67325.5658-2.53232-.6443-2.63502 1.0604-.58682-.066-2.15387 2.2222 3.8879 2.2545 2.14504 4.5934 11.40852-1.3592 4.70625-1.0091-.95355-.9712 1.43663-.6836 5.65045-3.399 2.02785-2.3079 2.90215-1.0317-.86052-2.4682 2.34236-1.0985-.99506-2.4378 1.48473-1.065 4.83156 2.0617 3.8985-.7526 3.44958-2.8008-.0171-4.2089 2.01799-2.4202-2.06082-3.9433 1.26614-1.8563 1.82127-5.2917.16644-.9584-.90279.5123-4.74342-2.7234-1.78329-.5302-3.66473-.4666 1.97778-2.2764-.97124-2.6047 4.0317-3.2206 1.21216-1.4284 2.76017-3.3316.95107-5.2445 4.7852-1.4644 3.34841-1.9169 1.45713-1.4614 3.25984-2.0351.87391-.7514-.91071-3.6851 2.61698-2.6739-1.49463-.9478.88941-.1408 6.67697-4.6721 7.33499-.3558 4.33578 1.6828 4.19782-.8041 3.05755-2.6914 4.58897-3.5601 2.41961-1.1144 4.95127-1.9937 2.24662-.283 5.36349-2.425 3.76595.5209-.73378-2.6063 8.18358.1045 3.22732.4301-1.21124 2.626 2.43493-.6591 3.02131 2.279 4.79197-.8131 6.94702-2.6519 3.80579 3.5009 1.81607.1937 1.5965 2.8688-1.30631-2.3558 1.51813-1.21-.33322.1339 2.77654 1.7022-.59401-1.6921 1.1109 2.4229-.48354-.99 1.06113 1.6017-.12634-.2451.87821 3.1136-1.70553-1.7258 1.13486 1.5355.005-1.3849 1.39126.9416.75266.67-.77526-.1559.86922 1.1497-.83516.9974 2.38592 2.9772.34075-.5051 1.04934 1.3508.0955.6001 2.2506 1.0415-.42728-1.3867.87146 2.7496 1.07383-.1194 1.18539 4.1032.36985 7.9827 2.86622 3.7556-.20366 3.8881-3.4678 6.018-3.44758 5.8009-1.32175 8.677-8.74754 6.2698-5.06423-1.0039 1.29138 2.6106-1.46884 1.7302.66396.6957-1.06347-.644 1.16844 1.1654-.45652-.8913.72838.5004.20687.7478-.93422-.6944 1.57353 1.7026 1.39454 1.7458-1.25152-.011-.79656.3977.47246-.2748-.71753.6041.45341.093-1.13599.6916.38785 2.1956-1.81907-.1846-1.02722.8412.71389.5824-1.20387 1.0469 1.59495 1.1447-1.31171.2936.61947-.6619.49358 1.1014 1.28203-1.2504 6.29039.811-.33995-.051 1.74802-.8123.44455 1.5517-.24725-1.1051 1.16226-.3469-.57029-.518 3.24959-.9947.60768 1.9934 3.03374 4.3673 1.63187.638 2.47829.9991-.18002-.8924 1.03625 1.5654 3.60648-1.1296 2.41974.8467 3.08005-1.1226 3.26154-3.0605 4.71481-3.3488 6.78917-1.6114 4.5416.8997 4.7885-4.7578 5.5157-2.1262 4.0216-1.1455 1.1876-1.2214 1.2398-1.4662 1.4603.9745-.9673.7873-.7911 5.7048-5.0306 3.0843-3.5954 4.7011-4.1839 7.2979-9.4342 4.1237-5.89017 2.5588-3.89466 3.8284-6.22441-.4112.69354.034-.0564 5.5233-9.90711 2.2421-4.43727.9211-1.90608.955-2.03231.023-.0489 2.3284-5.22666 1.4628-3.50576 3.6926-9.82366 2.0011-6.09424 1.1472-3.8278.2851-.9965.8186-2.97763.5945-2.28827-.1474.36912.6745-3.51273.3562-1.6653-.1664.6016.5887-2.90619-.1323-.81608.7316-4.55387 1.0556-7.33394.5332-3.03612-.077-.4067.2932-1.12911 1.1425-12.17912.6202-10.10688-.073-9.88515-2.0007-19.57177-.5448-2.52209-.1175-1.47475.043.93023-.9795-4.3016-.08.68755.4711 4.72648-.083 4.86504.1507 3.46315-.2698.91076-.038 4.02896-1.3518-.198-.2076 1.61899.028-3.10615-.3812-1.19783-2.7437-1.12153-.8283 1.23219-.707-.78826.2799 1.46064-3.6636-5.53768-1.6869.19667-2.9761-5.67433.3359-.0249-1.5705-1.81184-2.1057.11032-1.4956-2.26862.2884-.56619-1.3738-.31647-6.3157-5.90151-2.6777-1.19596-1.7292-2.29707 2.9705 2.27341 2.203.28904-2.3166-6.20581 2.0119 4.60395.59-1.12891 5.897 3.59843 1.3106 1.78534 1.5193-.50928 2.2997 2.23958 1.7274 3.38253 2.5578.27509 4.1795 3.88478 1.4067 4.23661 2.5152 4.95063.4838-3.65058-.3004-2.93422-.067-8.4726-.4825-2.95999-1.022-8.70683-.8484-2.74588-1.1285-6.87827-.9829-2.91495-.4264-2.21894-1.0825-2.98927-.7293-2.823-1.4547-3.01308-.6134-1.62378.088-.19842-2.9632-6.95699-1.208-.87642.127 2.25271-.5728-.14624-1.5767-1.94647-1.2036-2.15993 4.0609 10.1285.1732 2.89531.4785 1.69004-.4793.73141-2.4449-4.46828-.065 1.02169 1.9265 3.50894-1.9058-1.51846-1.0151-1.88688-1.5862.32694-3.0032-2.7029-.082.72817-.2455-1.36032-.9424-.78931.1867-1.66082-.6631-.96092.707-.32601-.3094-1.46825 3.8087 2.69011.3477-1.41003 1.2995-.38509.073-1.66527-1.7076-5.3809 1.9669 1.95922-1.1868-7.15139-4.5415-10.61526.9492 1.3008-.5145-1.12222 1.0167 1.50405-.9307-1.81151.6347 1.04825-.991-1.75945.8916 1.5493.078-.0431-1.5506-2.73286.8562 1.46281 1.6492 2.94601-.053-.13551-2.0826-3.6475-1.6884-2.83262-.6309-1.03189.8553 1.40232.3748.62275-.4713-.78218.8756 1.45981.317.53563 1.5003 2.58743 3.8292 7.0431 3.4418 6.9724 1.8918 4.14965.044.0993-.807-1.80345-.9144-1.98778-1.1645-2.45212.026.0532-1.3107-2.66364-.6304-1.2467-1.598-3.0671-2.7228-4.94822-2.0972-3.59979-1.0697-1.77216-.8339-1.35331-1.2083-1.91955-1.6178-2.49688-.7099-1.0707-4.1996-6.04631-2.8864-3.89723-2.6904-3.46315-2.2296-2.75596-.8143-.98225-1.8623-2.19957-1.208-1.39331.81.93144-1.4486-1.65758.2714.30772-.8518-.96175.3162.35559-1.0285-1.15041.087.0964-1.1776-1.29737.6151.67483-1.9239-2.0904.9489 1.02358-.5791-.62633-.8783-.94-1.1305-1.19239 2.7597 2.9456-1.1666-1.25964.943 1.01657-.6704-.72419.6292.67941.7873.85913.3103.34132-1.173-1.28215 2.6472 2.92556 3.3993 3.93294-1.0501-1.23704 1.0754 1.26712-.7979-.9422.227.26682-.9195-1.07507.2801.32587-1.292-1.49148-1.1276-1.27804-.4391-.49176.1407.1573-1.2152-1.34719-1.293-1.40697 1.2772 1.38967-.6281-.68672 3.1763 3.53936 2.0646 2.39384-.9155-1.07086 1.583 1.86122 1.9486 2.35581-.068-.0833 2.3689 2.96205 1.1839 1.5244-.8776-1.13285 4.3218 5.7473-.7441-1.02053 1.7194 2.37892 3.433 4.98093 1.7919 2.7336.6908 1.08047-1.0321-1.60867.2161.33406-1.7903-2.7245-3.0308-4.40346-1.1401-1.59361-1.1327-1.55133.6006.81871-3.2298-4.30365.7527.98167-1.9019-2.4568-4.4733-5.4854-2.0659-2.40539-1.6509-1.86834 1.834 2.0784-1.2484-1.42099.032.0356 2.0365 2.33331-1.0844-1.25146 1.2574 1.453-.6939-.80524.043.0494 2.7127 3.20052-.4226-.50765-2.223-2.61539-.8646-.99313.1762.20126-.9209-1.04641.268.30309-.4965-.56045-.2301-.2583-.1-.11163-.3059-.34143-.5766-.63947-.1504-.16592-4.0036-4.28401-2.982-3.03425-.3443-.3421-5.1914-4.96657-1.2657-1.15848-.075-.0683-2.5592-2.28064-2.5812-2.22289-1.8028-1.50827-1.0468-.85958-.1745-.14217-.5276-.42784-.9769-.78441-1.8208-1.4357-1.0861-.84045-.9435-.72056.3434.26121-1.467-1.10788.1526.11423 1.7162 1.30084 1.3136 1.01534-.5148-.39998-2.9155-2.2156.4364.32637-2.4253-1.79078-.7389-.53451-.6989-.50096-.7394-.5251-.3892-.2744-1.6579-1.15353.8381.58009-.9695-.67051.092.0633-2.0662-1.40299.8787.59214-.5821-.39301-1.5285-1.01797.6109.40443-1.4924-.98245.287.18749-1.933-1.24937-1.1296-.7157-.1504-.0945-1.4361-.8932-1.051-.64316.3172.19313-2.1729-1.3075-.1837-.10884-1.26-.73953-.8377-.48494-.4719-.27082-.8419-.47906-.3241-.18297-1.2683-.70851.2887.16023-1.7824-.97946-1.4053-.75592.3633.19406-.401-.21413-.615-.32618-.2743-.1446-4.4226-2.25831-.2396-.11846-1.828-.89099-.8653-.41384-1.1733-.55313-.2037-.0951-.9075-.42034-1.0678-.48765 1.0931.49929-2.1305-.96592-.021-.009 1.963.88865-4.5699-2.03022-.908-.38745.7898.33671-2.1069-.88943-.8571-.35383-3.6291-1.44783.8054.31433-.8346-.32567-4.3278-1.62113-.3042-.10976-.8224-.29395-1.3745-.48238-3.0493-1.03084-.5843-.1914-1.6424-.52749 2.3094.74617 4.4781 1.53465-1.9388-.67878 1.7444.60971-1.6676-.58324-2.6639-.89814-7.4506-2.29678-2.2433-.63069.5909.16342 4.4616 1.29651-1.318-.39456 3.1068.94565-7.4508-2.1776-2.6751-.70708 2.8034.74197-.1695-.0461 1.197.32882 1.7468.49396-.8645-.24659.8729.24902-.757-.21619-.5768-.1626-.6043-.16837 2.3066.65354-.2715-.0785 1.3822.4037.6221.18516-.9204-.2732 1.5824.47264-.5791-.1746 3.8953 1.21086.9095.29516.543.17847.5674.18829-2.3581-.77046.8675.27975-1.5474-.496.5435.17267-1.1303-.35718-.1438-.0449-1.563-.48068-.1001-.0303-3.532-1.03386-3.0032-.82472-3.3983-.87386-.032-.008-1.6492-.40135-6.4442-1.42937-2.6733-.52888-2.9304-.53709-1.0032-.17367-.5036-.0853-3.0109-.48251.087.0133-5.0735-.71092-11.6758-1.14482-10.256-.4475-4.7045-.016-2.3669.15211 2.0095.13694-1.2191-.0153-.4475.0638 3.5319.21022 2.2407.0173.1699-.0721 2.6846-.045-.9729.16313 2.0452-.076-.2417.22053 2.2344.0695.9684.15052-6.2049.29947-7.897 1.35098-5.7468.38968-.7251-.1178-.7124.23738-4.4162.24605-.6302.38371-5.3795.33334 2.0808-.34669-.5843-.0846-6.5625 1.19026.6156.099 1.4437-.26537.1381.25091-2.7242 1.67404-5.4503 1.52307.2192-.6482-.3557-.16633-.9297.30202-.1192-.3297-2.2352 1.44488-1.4521.38996 1.1583.46169-1.7919.66362-1.3086.18351 1.4628-.61901-1.271-.9252 2.461-.99179 3.5936-2.51283 2.4623-.6016.6389-.70431-.382-.58424-5.6327-.073-2.7104.81036.8839-.005-3.1804.73555 1.1615.0893-3.5183 1.10494 1.5755.2346-2.2012.63854 2.5428-.0289-.6665.42432 2.7602-.5749-.5621 1.58584-1.237.43465-.9669.0288-1.3695.98872-.8998-.27262-.3265.61434-3.1406 1.25295-2.6458.3349.4123.31044-2.1417 2.21597-3.3805 2.47365-3.1138 1.22382.2807.44763 5.0775-.23498-.5408-.1058 2.0093-.18495 1.1791-.97169.3501.17613 1.303-.56072-5.0974 2.58578.1515 1.04951 1.7821.30579-.9066.57201-1.9159-.39297-1.9487 1.2586-2.8483.43341-2.8973 1.10849.3259.30135-1.0434.0374-.5664.69039 1.8313-.61151-.4215.83772 1.0062.13213 1.4179-.57325-2.4704 1.29275 1.2583-.18481-1.3668.5604.4609.74621 3.8039-1.13045 2.2415-1.20734.7993-.65285-2.7663.0938 4.7691-.21709 7.502-1.91834v-.00024m-25.1522 366.62981.7823.2934-.063-.024 2.77 1.0104.5324.189-1.1401-.4067.1573.056-1.2084-.4383 2.4287.8723.6068.2125 3.2348 1.0967 1.8017.5846-1.4768-.4778-1.2824-.4251 1.289.4273-1.1894-.394 1.7369.5725-1.04-.3407 1.0521.3447.8282.2668.052.017 2.9037.9038-.6805-.2075-2.504-.7863-2.8987-.9622.5765.1402 2.8168.8479-.9097-.5039 1.6916.328-1.9057-.6509 1.2438.3252 1.0671.4139.9499.1898-.9465-.4422-1.3263-.2597-1.7481-.638-1.2248-.8607 3.3814 1.1624 3.2105.7676-1.2211-1.1019.8473.2655-1.3613-.6914 3.3258.9786 6.3888 1.1968 2.2252.1829 1.5811-.5346-.5013-.5123-1.9886-.6727.09-.5201-4.3237-1.644-.4841-1.3326.5583.9067 1.9338.9 4.9636 1.3666 5.4784.7169 3.6968-.9511.4122-1.2606 2.9666-1.1713-.7489-.522 2.3524.8247-3.8675 1.3742 3.4225-.6602 2.7007-1.8366 2.6465-.6761.5708-1.7679-1.2784-1.2724 1.2828-.9216-1.2788-.4095 1.6851.299 1.862-.9944 3.6652-.8937 3.0894.09 3.1207-1.2081 2.7803.3367 1.5058-.5811.1275.4892 3.3618.1189.1484-.7433 3.1682-.8099-.2954-.8336 4.1484-3.2463.3727-2.2239 1.8902-1.2783 1.0689-9.7023.5367-.5383.7449.8988 1.3924-.763 10.9853-10.0277.5556-2.8606-1.5697-3.9578-1.2369-.8475-5.3718-.1244-4.6395-3.0719-5.443-2.1631-7.8787-.043-4.0868-1.4898-4.8914 2.4096.23-1.8699 1.3625-.6711-2.2013.1738 1.7682-.9371-1.2346-1.7286-1.4221 1.0643-.3118-1.4159-.6826.4687.371-.5564-.9796.3062-1.0285-1.0836-.5585.6454-.1754-1.1097-.527.5577-3.3048-1.6236-.2651.5967-2.3981-.6574-1.5315 1.9783 1.4921.3681-1.3213.2888-.7218-.8883-2.8811 2.2827.6933-1.632-4.0223.1527 5.3553-.6012 1.7715-3.0261-6.7897-1.2492-1.592 2.2608-.1215-1.2568-1.4289 1.0011-.1425-1.295-1.4206 1.0898 1.3398-2.2568 4.9026-2.8698-.8326-.1258.7218-1.2943-2.8822-1.4132-1.7664-6.24945-.8432-.61255-.3933.9951-2.1266-2.82548-6.3454-3.65736-10.0464-1.66168-3.8719-3.88312-1.2225 1.23793.825-2.63125-1.7753-2.24259-3.7652-2.91083-2.1284-.35177.2346-2.5091-2.4318-2.02305-2.2804-.32898-1.6294-2.14274 3.3665-.25953-7.6498-1.83609 1.9111 1.08179-4.5735-.00089-3.524-2.90339-5.8901-1.42029-.594-2.38038-3.6137-2.18191-.9252-2.63815-.8501 1.47718 1.3134.29168-.048.81947-.9958-.80737-4.5844.68305 1.3235 3.8733-.2626 1.1471-1.9686.0293-1.0123-2.74942 1.9229-2.01215-.8293-3.00873 2.701-.5061-1.4748-1.88912-5.12987 1.63785-2.48509-1.21435-.51393.84853-1.5716-1.04414-1.29502.38643-1.49792 1.3912-.009 2.16478-3.98973.89008.26883 2.09719-2.67421-4.99818-2.83296-2.83136-1.73807-1.07083-4.16194.26401-1.97966-2.30391.1832.87052-1.15868-.83858-3.17181-9.19952 3.33432-8.00899.10368-3.06073-3.49557-4.69796-7.49586-3.99859-1.62401-1.90714 2.40608-2.03091 1.39165-4.01272-.66052-.55606 1.17208-.89525-.0797 2.35916 2.1369-3.58776-.66583-.75569 3.65182-3.61646-2.71336-2.95763-5.16163-1.656-2.50752 4.38015-2.57252 1.37855-1.4131-2.04128-4.68528-1.71671-.88441-3.28883-1.27175-1.17316-.0133-13.26583.39014-1.74867 2.34282-5.62045 1.01747-2.05705.89386.19741-.71968 1.00292 1.86402-2.12715 1.25855-4.3076-.57935-.66227.70087.49331 1.5163-2.11377 1.72723.50797-.0553-1.25485 1.09314 1.32275-.65618.0957 2.71785.0717 1.14655-1.70827.70184 1.30242-.8161.10111 2.11189.53011.40382-.96387-.37161.93224 2.55932 2.84868 1.34497-.14276.85279 3.74054 1.15429-.16684.37164 1.13552.40872-1.42725.72773.91734-.0301 2.23833 1.17749-.18579-.92098-2.21788 1.36667-.29453-1.86416-2.73308 4.64332 3.04633.89371-1.23281-.0749 1.5553-.72.10546 2.56445.24902-.67413.59061 2.25459.92609-.79811-.12269 1.8696 1.55026-.33011 2.33152 3.08012.0915.8933 1.38468 1.11907 4.72887-1.65692 2.84653 1.11431.36664-1.18769 1.09462.16509 2.21242.90062.28874-.48584 3.71824 1.33088 2.03881-.59612 1.32411 1.34768.55227-.24142.65813 3.13631-5.15692 1.258-15.99235 3.33247-2.01702-.008-1.09117.17469 1.02798 6.03781-2.60689 7.001-.83265-1.3567-1.08274 1.4955-.28628-.9493-1.29626 1.7499 1.42938 1.3502-.51184.1394-1.26369-.8226.85971.362-1.14148-1.632-.54125 1.6603-.6178.6719 1.18384.4291-2.27478-.1863 3.50632.3446-4.20531-1.8335-2.08878 1.1031 1.10637-.3348-1.85085.3201 1.25132.8635-.8023-.8667-2.03503.7817 1.81451.6429-.78148-1.8516-2.63173.645-.91198 1.2017 2.97938.9209-4.26867 2.027-.12244-2.0125 1.70126.5201 3.6007-1.772 2.45452 3.6489-3.26096.6151-4.77377.4859 3.23718 2.7631-1.92723.5162-2.60186 2.2402-1.06833 5.1056.88616.7357-1.44325.028 1.38805 3.0468.42438.2327-1.3891-1.0242.86355-.834-2.79698 3.4225-3.7476 1.0895.30436.3999-1.15012 1.0884.97999 1.7264-2.11772-.4229 1.1759 1.6095-.46677.1146.98307 3.0267-.78475-.064-1.53146 1.428 1.07887 5.6205-1.3026-1.9358 1.44084 3.5724.91184-2.0124.73802-.5446-1.37507-4.5382 1.69562-.8891 2.28669 1.2401 1.66658 3.826-2.94412 1.3745.88192.2605-1.00016 5.8611-.13206.9309-.24473-1.6624-2.43771-3.2833-.23947-2.5679-2.93692.624-2.58666-1.3571-.39033 2.1335-2.041-2.0804.11713.01-1.12707-1.9522-.89868 3.3177.9462 2.4243-.76445.1548-2.47137-3.1568-1.30588-4.8402.51118-8.5512 3.66932 3.9089-2.10302.4693-1.6473 6.6718-1.59071 3.0244-2.49716 13.5587 3.72677 3.4576-2.76608 3.7668.20116 3.1679-1.73595-.8804-1.42491 1.2837.25187-1.7594-.87708 1.5861.32828-.6955-.95877 1.1916-1.53592-1.0148-1.76676-2.0777.86311.9203-1.61311-1.806-1.40612-6.0447 2.11945 5.6327-2.17009-2.5449.1074 4.8996-.85434-1.5131-.8928.6371-.50113-2.0756-.0825.2025-1.09844-.8946.44979.6554-.7992-1.8856 1.30284 1.3916-1.12995-1.1342-.0815.62-.65393-2.0825.73109 1.5038-2.41109-.8802.59019.4097-.82324-1.9745-1.0229 1.0698-.64047-1.2832-.33328.8719.0256-.9582-.90942 1.109.0485-1.3554-1.11083 1.4041.8448 1.0753-1.41063-1.6356-1.78034 1.2817-.16634-1.0326-1.30553.6746-.67145-1.7929.22804 1.9615-1.25316-2.0065.11118 1.7632-.94515-.062-1.2484-1.5595-.31171 1.3658-.239-1.1604-3.21359.8109-.53569-.6024-.61572-1.9112 1.61836.3741 1.383-1.3389-.009.4115.91655-1.5614.32151-.5292 1.76567.1024-2.029-3.279 1.91973.2527-1.95271-1.9332 1.42251 1.6624-2.2189-3.045-1.07599 1.072-.62547.099.94052 1.2489-1.39858-.821-.29173 1.0409-1.93863-1.6386-.89703 1.9503.63464 1.6795-2.95131-.9948.5955-1.9726-2.02297.8451-1.33986-1.0899-.27826-.4361-3.47643-1.7931.59587-2.9626-3.13591-1.6153.43243-.4437 2.50669-2.4175 1.64208 1.08.32141-1.0482 2.50669-4.5367 2.96667 1.1291 3.07644-2.1887 5.23464-3.677 2.44224-4.5259.19687.3114 1.9899-2.3882 6.36599-1.8999.87224-.7056 1.96029.082-1.89363-1.689 1.21142-1.2249-1.21011.8729-1.23999-.5504-5.3044 4.2482-6.44906-4.0191-2.80345-2.7772-10.91818-3.3289-.85514 1.4739-.76574 2.4577-4.28033-.983-1.09603-.9943.91342.8504-2.31689 3.8438-3.40139 4.541-1.67679.1686-.85855 3.3155-.0263.1162-1.10561.8619.96614 1.6848-.33498.2174-2.15169-1.1355-.18093.7968-.36767-1.1724-1.7788.888-.59022 1.0839 4.34002 2.4104-1.26132 1.8406 1.42607 3.5643-1.65681-1.9518-4.74988 1.174.61854.7669 3.38284 3.4342-1.11214v-1.54758l2.0387 2.90393.3644-2.81013 1.2633.76827-.7091 1.8089 4.6305-1.58345.7144-3.34177 1.7905.26189-.2399-1.0488 1.3732-.41829-1.0257-1.8796 1.0044-.0284-2.2521-2.01333-1.9185 3.22935-.7994-.54855-4.1183 2.90042-1.4587-.0724 3.7486-4.81247-.1098-1.43181-3.4115 1.8909 2.0346-3.43673 1.1017.43311-1.3307-2.07687 1.8369-.90228.4693.646 2.7714-5.63039-4.5695 1.16198.2513.74196-2.6378 1.51579.7061 2.86476-.823-.46702-1.7871 1.01201 1.2898-.054-.8735 1.20359-2.9005-.22175-2.2789 2.09215-.065-1.47986 2.682-1.41686-1.374.0889 1.0744-.46647-.1519-1.04702-1.2461-.73892-.9206 1.44712.7021.54437-1.2561.84711.7347-2.14435-1.3873.64028-2.2742-2.42174.743-1.85929-.932-1.20899 1.7309-2.35703-3.3545-.77718.3069 1.14675 2.2252.60642-3.6436-.27031-1.4089 1.94792-.9661.57481.058-.83243-1.5392 1.59799 1.4464-2.41254.9566.0638 1.219-2.94187-1.8516-.88909-.807-2.85933 1.1696-.71783 1.1318.76775 1.1205-1.58941-.6175-1.65858 1.9492-5.00449-1.9454-1.37336 2.8285-1.09649-3.0292.26091 4.0076-3.30225-1.4201.87708-2.8205-1.87522 3.1342.0727-2.8664-1.81966-.2747-.84986 1.5446-.59012-1.4819-.80469-1.9418.99717 6.3921-7.12098 3.5429-5.83995 1.2149-1.0022.7542.2124.6605-1.30656 1.5211-.58895-.6865-.62765 1.0211.30422 1.1362-.57828-.856-.91748.8182-1.2033-1.2923-.199 1.0198-.13696.2032-1.22176-2.2679-1.61176 1.3571-1.53642-.9494-.55287-3.9481 1.694-1.7599.27268-1.7464 1.50384-1.4905.11251-1.1086.98521.9469-1.05882 2.0584-.65273-3.3287 1.03564 1.906-2.05716 1.9035-.44107.7898-2.83673-2.9192 1.47809.5711-.69612-2.1665.53-3.1086 2.42779.657.016-1.1608.29361.56.82082-1.0968.7991-.2311-.59038-2.1261.74578-.6626-.29895 1.0752-1.00485-.5741-.78358 1.5364-.96559-2.7751-1.28813-1.5755.54755-.6334.68413-.2249-.27077-2.1391 1.59018.5983-.94581-2.1734.50365-1.0429 1.73323-3.3546 1.00103-.6154-.43398-.5554 1.61705-3.1102 1.78034 1.6788.004-1.7106.60886v1.18106l-1.1254-.39437-2.535.63924-.355-2.49757-1.4065.37831 1.9004-1.747-.9762-1.10171.1011.29851-.6342.49627.9433-.28684-1.2167.84905.8654.13325-1.0161.52058-.181 1.26905-.9538.41163 2.2401 3.02311-.1779 1.30743 1.262.58461 1.1059-1.07032.9856-.18633 3.2658 2.50731-.4016 1.35871-.4815-.72614-1.6506 1.36775 1.4944-1.61362-.294-.85475-2.4367.11615-.5191.9689-1.2663-.44842.089 1.81993.9005-.20171-.8328.38359 1.1434-.18517-1.074 1.18748 1.1542.16705 1.4389-1.06026.9052.69373-1.2441.15288.7816.13972-.9029.34165.2455.92553-.4618-.27537-.5785.7836-.1202-.53112.031.56166-1.0562.36799-.4838 1.14264-1.5573 1.04149-.7658 3.00598-1.7064 1.65325.8513.52185-.9305.95899-.621-.20806 1.3516-.67341-1.2606.0667-4.7889 5.12906.3875.55231 2.2533-1.97283-1.1192 1.30488.941-.31409-2.1103 1.126-.5654 1.14889 3.7683-1.80321-3.3617 1.97661-.6638.99144.9518.0818-1.3807.20469-.69893 1.35541-.23045-.41886-.8892 1.2015.73158-1.21611-1.1259 1.2041-.45902-.39229-2.96447 3.88576-1.84498.0586 1.43117.71379-1.0205.92164-2.8497 1.27435 1.60065.0904 1.80349-.67776-2.54195 1.02386-.2742.80664-.93248-.51357-1.00767 1.13861.99218-1.13799-.81606.38584-.41097 1.44892-.77651-.30316-1.63507 1.98736 1.80179-.17636-1.2839.62065-.12178.96018.10614-1.24896-2.21235 2.90443-1.28578-.0397.67946.14181-.90556.75556 1.39552.39003-2.4442.22612-.96766.92734.64768.22145-1.04324-.12277.15398.96148-.59148-.68801.21265 1.53322-.59609-.91213-.0186 2.01157-.32463-.37837-.36686.79303.92846.42636-1.11441-.41861-.47862 1.2305.8549-.21629-.76031.32339.0304.72243 1.41866-.50751-1.69334.75364.64746.71738-1.43834.26081-.60364 1.29239 1.22619-.20472-1.14831 1.34788-.62188-.27386.68565.80995-1.79111 1.33183-.50449 1.50812-3.14985 2.94221-1.40065-.13428 1.32042-.31851 1.07886-1.03705-1.68398.35343 2.1672-.98688.11307-3.40767-3.64329 3.70444.2062.47314-1.85811.97933.10704 1.07068-.19378-.88766-8.47618 6.1475-3.15138 3.82151-2.39844 1.59212-3.21234 4.53876-1.79345 3.3393.41553 1.19544-1.1813 1.81591.55981-1.6276-1.27773 1.54165-3.50041 8.0441-1.14294 1.39354.0809 5.13542-.81742 3.96019-5.05748 12.20061-.80691 6.53072-1.0952 1.05317-.11756 1.27049-.7589-2.27789-.40004 5.42055.83031.14968-.49635 4.23932-1.77038 3.5743.19484 7.03496-.52214 2.47058 1.01367.21957.72981-3.10366-.52217-2.47681 2.30755-7.3731.66923-5.7436.9599-2.11302 1.10918-7.40538 2.96075-5.59719.3288 5.17343-2.92497 7.6821-.60146 4.79072.51541 1.31872-.9124 1.53317.0552 5.45843-1.21721 1.09055.70391 4.27045-.52171 1.26929.24083 8.80117-.662 5.51195-1.27712 1.29462.19062 1.09595-.80846-.37064-.17842 1.41042 1.08136 8.76385 2.05098 3.97679.75667 3.65909 6.50447 13.03493 4.70926 2.55202 4.60293 11.6721 5.76442 7.08357-.50205-.72575 3.10368 1.68651-.0572 1.62116-.91176-.58348 3.79725 8.68671-.76073.0451.64819.80409-.42212 2.52763 1.22389 1.90787.72397-.41201-.83929-1.93844 1.19693 1.7214 2.41338 4.435-.0875 1.82371.72023.60373-.13242-1.19604.99087 2.80259.547-.58409 2.43393 1.76183.4758 1.82154 1.27071.0816.22277 2.28875 1.20462.55728 1.27458-.15257-1.05919-2.76 3.98524-.38583 1.58061 2.95243 1.01612.27576-1.09448.98233 2.68576 5.4596-1.13219 6.3574 1.37618 1.49267-.34378.64252-1.89119 1.8357-2.22224-.4925.034 1.89904-1.39025-.35157.25746 1.70669-3.17107-.88341.37328 1.83893-1.48342.70566.61004 1.06863-1.68851.0896.12018 3.3787 1.78357 2.01586.94603-.82409.47674 1.22478-.6921 1.59786-3.20115.47107 1.34531 4.09143-.71847.36441 3.31205 3.61593 3.11488 4.97318 4.75384 9.043 4.95995 6.6341-.29099.8604 1.71396 2.2284 2.54101 2.5687 11.38842 8.2056 4.0044 3.5387 1.4469 3.1694 1.0827 2.6743-.2015 2.9859 1.8753 3.2428.056 4.2405 1.5366 1.638-.5092.4811 3.2334 3.8968.085 2.284-.9863-.306 3.6785 2.4544.2521.5818 1.7691.8838-.3783-.1235 1.4394.5461.9691.4248.4155.1215-.6782-.1576 1.5053.6683.1296.1156-1.0488-.467 1.1693.5341-.8524-.3664.6333.388 1.2865.5668-.7354-.2846 2.0459.8622-1.1226-.4575 1.8305.758-1.4415-.5951.253.1054.7342.3036.054.022-.959-.3969-1.1629-.4891.9111.3839-.7309-.3075.1237.053-.4299-.1821-.9088-.3889-.6647-.2877 1.2968.5588-.2079-.089-1.1666-.5038.9196.3979-.7278-.3144 1.0218.4404.4759.2028 1.2637.5318 1.1159.4611-.9624-.3973 1.3025.5363-1.4739-.6076 1.9813.8137 1.4537.5815-1.0393-.4144.9712.3874-2.9021-1.1752 2.0711.8441-.9641-.3896.8406.34-.1729-.07.5993.2402 1.236.4888-1.4439-.5719 1.4356.5687-1.7794-.7067 1.6248.6461.1645.064.6465.252.6751.2603-1.684-.6547 1.284.5007-.2607-.1008 1.287.4939-.2189-.083.6555.2485-.6149-.233 1.6419.6172-1.8168-.684.8319.3158-.2323-.088 1.4771.5522-.6046-.2244.094.035-.2759-.103-.1329-.049-1.5043-.5709.3708.1419 1.5124.5705-.7733-.29v.0007m63.4163-256.50672 1.1083-1.12439 1.6482.99234-1.7874-1.65506 2.33.11285-1.0878-.9097 1.4517-.74904-1.5624-.27869 1.6788.18529-1.0004-.82153 1.4513-.48169-1.1203-.36571 1.4342-.30786-1.0614-.23656 1.2993-.73912-1.3823-1.70738 1.3659.47659-1.5828-1.2366 2.2232-.17702-.4841-1.39196 1.2589.6484-.9439-1.33715 1.2316.56937-.713-.62337 1.3492-.28476-1.1778-.90907 1.5519.56915-.106-1.3512-1.5012-.47891 1.8751-.27526-1.1519-2.52991 1.3541.49155.4276-1.83962 2.527-.18441.3719-2.53843 1.0261.31581-.8654 1.41747.8918.36325-.1345-1.11796.4099.75645 1.965-.90796-.5036-1.00262 1.5759.30591 1.6697-4.38136 1.4567-.90952-1.0091-2.11279 1.4963 1.61788 1.9838-.38072-.062-.92041.8574.5787 3.5339-1.89365 3.8334-5.17538-3.9277-.26378-2.0964 1.77248-1.5135-.27054 2.1464-1.42649-3.136.46712 1.0341-2.25799 1.4264.46001 1.2472-1.22955-3.5167-.30281 1.0975-.63663-1.3051-.70641 4.5236 1.28689 2.2209 2.34624.5901-1.39127.4769 1.15691.9789-.37571-1.4738-1.35401.1682-1.40281-.8451.26133.418-.93013-1.1938.57763.3575-.97961-2.6288-1.03441-.6583 1.05121.029-.8557-1.1077.20173 1.7158-.57447-.964-.79373-1.1772 1.02483-1.0789-.78421 2.1967-1.02806-2.6563.23545 1.2704-.51805-1.1577-.60657 1.5061.54815 1.0484-.97846-1.4069-1.09119 1.5841.96378.071-.82753 2.0032.2003-1.8348.16503 2.0418.89896 1.6576-1.05518-.3228-1.08891-1.5444-.2791.3511 1.20111-1.0451-1.03664-.2235-1.59994 2.613.53107.3039-.82744-2.0357-.0271-.077-1.19276-1.6974-.001 1.5995-.38641-2.0226-.63438 2.9092.61058-.5001-1.6606-2.3279-.20682 1.453-.90237-1.6872.22602-1.2178-1.18666 3.2555-1.07651-.7422-1.33454-2.1858-.0897 1.1427-.82925-1.5272-.46995-.4016 1.06526-.3918-1.24596.4151-5.41552-1.3183.99272-.528-.86929 1.9728-1.64886-2.8551.56293 2.9947-1.68846-.3943-2.33048-2.0404.0889-.1072 1.41324-1.4925-.0788-.8617 3.06766-.5447-4.08573-1.7987 2.10398.3602-1.62237-3.8663.88705.5701-1.02314 3.3227-.35367 1.2756-1.47068-2.2981.0262-.031-1.03327-4.3162 1.58692.7679-1.20209 3.1851-.78341-4.8947-.0863-.335 2.01811-1.8788-1.40736-.798.84412 2.0338.61093.1134.9277-2.4819-1.17573 1.3382 1.48626-1.1079-.12179-.015 1.3137-2.6708-2.24294.051 2.41467-1.3943-1.20058-.8425.87894.4705-1.86732-2.576.30579.6332 2.02566-.6628-1.57237-1.0612-.0626-.9998 1.95397-.5695-.7368-.4552 1.19528.031-1.0681-2.8939 1.33598-.2242.79618 1.8704.2945-2.7481 2.19706-1.9219-.40607-3.9334 1.16663 1.1197 2.64921 2.3313.37382-.5226.9013-1.9975-.7386 1.643 1.06054-3.5286-1.09876 1.7517 1.82425-1.6567.25153.2488 1.11802 1.2689.98223.042-1.03818.9306 1.00442 2.0597-.50031 1.6466 1.07795 2.2782 5.26738-1.4947 1.07051 1.3021-.28196-.769 3.52688.9408 1.88294-1.4224-.12896.887.40147-.9639 1.17974 1.1682-.76199-2.0402 1.3422 1.9048 1.06401 1.0845-2.60952-.1904 1.92527 1.7185.15848-1.6461.74093 1.8382.0662-1.5115.76079 1.2295-.25127-.92.45731 1.3824.46762-1.1555-.16993 1.1582 2.27047-2.4229-1.66275-2.002.044 2.1396 2.1864 2.4901.3101-1.6154 2.41373 1.439.25128-.661.80554-.761-.83773.1647 1.97684-1.9139-.6896-1.7878.79798 3.5204-.12263-1.0162.86282 1.2719.98828-3.6915-1.33429 1.457.94707-1.4124-.44735-1.0445 1.58577 3.0644-1.12901-.9751.43149 2.6592.172-4.9608.72095 3.0673.65761-3.3623.0951 1.9832 1.29444-1.8518.35147 1.3802.59197-1.6141-.2262.5707.68201-1.0042.56692 4.3239-2.13488.7575.49804-4.8608 1.9247 2.4372.20741-2.255.70784.7481 1.31248 2.0768-1.12054 1.0103.57745-3.2582.73982.8727.11084-.6927 1.56465 1.51-.43165-1.5241.79698-.083 1.59154 2.352-1.46539-.2144-1.57772 1.4912 3.00058-1.7007-1.08406.9162.68218-2.4897.55292 2.4821.44346-2.3403.0195.9898.48357-1.1409.67743 1.5977.24755-1.2687.5671 1.6411.37144-1.4951-.0303 1.5776.56236-.7344 1.36361 1.207-.769-1.2944 1.69125 1.5545.89613-.8643.89924 1.4869-.20111-1.2126.7485 1.1696-.46787-.719.8678.9332.30663-1.15.20991 1.6695.18094-1.4375.32772 1.9234.40399.227 1.71306 4.2904-.97933-1.8842 1.38183 1.5147-.76474-1.1472 1.35732 1.39-.56634-.089 1.21143 1.0821-.98169-1.1015 1.85216 1.3355-1.27624-.5355 1.76288m-33.3522-12.33309-1.6498-6.82 1.209 1.76512.2752-1.29891 2.7033 4.78677.9653-3.73539.3904 2.04124.8278-2.26392-1.0339-1.42278 1.0437-.11901-.3122-1.51525-1.1819.44467.1281-1.43485-.5326.92728.6019-3.03468-1.5431.29563.8154-1.93492 1.4823.68403-.094-2.12577 1.4403.59864.2504 1.73514 1.035-.61939-1.1222 1.14345 2.5195-.6274-2.3181 1.37649 1.4833 3.34501 1.3586-3.15235.687 1.3721.3515-1.80879 1.1408.78746-.8356-1.32714 1.7534.50859-.4978-1.10423 1.2378.14276-.4841-1.38816-1.395.93964.2526-.96114-1.44.14372 1.5533-1.31337-1.4321 1.02961.8304-.87639-1.8279.23186 1.298-.48398-.9-.599 1.0083.37874-.084-1.5712-1.0796.23793 1.0765-.79261-1.2875.9061-.013-1.28192-.8119 1.00246.7343-1.22476-.8972.60046.5875-1.00337-.7919.38882.2721-1.2442-1.0924-.15546 1.6637-.0463-2.5313-2.09608 1.7802.72027.092-1.19406-1.1729.17629 1.4119-.33264-.8341-.74201 2.2918 1.39821-.1439-1.02965-2.948-1.27897 3.354.58382.3278-.73276-.4222-1.28468-3.0878 1.2313 2.3723-1.11024-1.8527-.0825 2.7633-.65665-.7555-1.15887-1.7435.48416 1.4517-.88743-3.1367 1.69622 1.2812-1.26271-1.0298.0242 2.4638-1.19862-2.7066.43458 2.5355-1.21714-.644-1.56056-2.3491 1.10121 1.5934-1.81766-2.471.98636 1.3155-1.07737-.6334-.36811 1.7625-.51421-2.3441-.36296 2.3338-1.11286-1.5144-1.65337-1.4801.40202.6889 1.40855-1.3945-1.04154-.029 1.72068-.1452-2.78286-2.3119 1.00056 2.4615-1.75536 1.1655-2.93732-3.3814-.63311.1456 1.38298-1.2903-.91193.494 1.40503-.9178-1.18562-.9635 2.83616-.2143-1.13346-1.2033.16877.2928 1.67594-1.8869 1.52786.4556-.76465-3.7802-2.15743-.9334 1.76167.096 1.12479 1.8901.14212-.7764 1.5409 3.2317 2.4989-.1402-1.7463.5626 2.55663.2059-1.47124 2.145 2.11155.2706-1.632 1.2609-.55432-.7012 3.10779 1.0934-.32785-.8816.81415 1.0362.38431-.2365 1.43909-2.1304.93484 1.8492-.32399.3472 1.94629.8752-.13389-.8011 4.53921-1.8471.97073.9303.76035-1.1108-.63065-2.6211.8557-.1071 2.51966-3.2103-.64542-1.4034-1.53713-2.8111 2.49049 4.3013 2.17473.7545-1.54534.2388 2.22618.9791-.83173-.5809 2.68077 1.4877 1.48689-1.4839-.0424.1319 1.15675 6.2553 6.34494.0005-.004m27.0486-59.15408-2.7713-.0136-.784 1.67183-.6168-1.86038-1.2565.17769.013 1.13688-.562-1.24896-2.5001-.10884.69.66095-1.0074.25404 1.4413.56758-2.1489.27546 2.5847.74135-2.732-.49067-.031 1.07017 3.4095.19602-2.1811-.0237-.8994.3963 1.9133.10508.5576.40784-1.2285.23144 1.1987.29995 3.4907-.81683-2.1359.79206 1.1032.55852-4.1978-.41309-.5873 2.30625.1432-2.29606-1.0146-.83482-1.6411 3.44547-.7331-.33079 1.6668.86227-1.382-.0585-.189.86681-.5114-1.58184-1.2986-.17942-1.8624 1.04652 1.4803.0112-.5173.71573 1.6356-.76186-2.7071 2.21701 2.6664-.38711-3.0349.98207-.5823-2.48479-.8695 1.96527-3.1851.10223.1299.78047 1.0472-.70109-.6638 1.22225.7858-.58194-.245.929.788-.60752-.1101 1.29602 1.4542-.47863.089.94105.7009-.84241-.1797 1.22177.713-1.13031-.5591 2.15333 2.4316.15708 1.3784-1.12651-1.8899-1.64297 1.0768-1.18283 1.0566 1.85405 1.7351-1.35175 1.3262.6922-.074-.87456 1.3194.2402-.5322-.8906 1.2945.38795-1.3597-2.21206 2.3063 1.20821-1.2653-1.63574 2.8761.78816.1632-1.09125 1.1518.98277 1.1906-.66759-.7516-.68166 1.1027.51766.3027-1.00532.3308.6882 4.0702-1.69087-3.0995-.0846 2.311-.47481-.8995-.86833 1.4348.73133 2.1152-.45903 1.029-.73779-.4026-1.41254-2.3354-.13689 1.3817-.43279-3.5123-1.95599-.038-.006m96.6535 83.68574 1.694-2.39111-.3822-.74809-2.0809.85717.9053-.99427-.273-3.41065-1.5889-.93122-1.9858 1.23604-.037.0674-1.1832-1.97531-.5547-.12733-.9783.33768 1.1315-.86604-.7753-.99366-2.6402-.42835-3.8556-3.24352-3.0478.6935 1.7058-1.389-1.4202.24934.9739-1.18188-.8054-3.6221-3.7406 2.2677.081-4.42297-2.9134 1.40968 1.2836 2.45885-1.2069.39678 1.9211 1.95529-.7048 1.73856 1.9778-.8144 1.0391 4.85544-.098-2.02709.3151-1.48378 1.0349.68151-.8019.21485 1.3802 3.50068.8512.46794-.3936-.72501 2.7619-1.7185-.1484 1.89171 1.5739.97207.2734-.82131.6798 2.35202 1.0405.23527-2.3303 1.65277-.3014 1.73404 1.0211-.95649.8182 1.03961-1.32 3.24871 4.1838-.0722 1.1484-2.17383-.2013 2.509-2.1051.95289-.96 4.73623 3.5747-2.22078-.4553-1.59651 5.9104-3.3725.01-.005m-118.1949 29.11641 3.1523-2.58057.3955 1.61292-1.332 1.9672 1.7558-1.12433-.5173 1.95467 1.0822.21966 1.7808-2.90233-.2346-1.03716-1.2849.73362 1.2039-2.02003-1.8629 2.01862-.6736-1.2912.8815-.55957-.6906-.73696 2.3793-.73803-2.8171.13275 2.1358-2.82038-2.2367-.25987.253-1.06157-2.3996 1.44901.878-1.6168-2.2459-.002 1.8542-1.55242-1.6338-.14818.2806-.76071-2.02 1.78126 3.6445-4.77661-.547-1.04613 1.2564.19473-.6675-1.02569-3.9268 2.51279-1.6521 4.07112-1.2112-.0294.3923 1.63358-.9852-.82588-2.4646 1.8245 2.2422.32063-3.0531 1.5324.2618 1.24209 2.099-.3447 3.1002 1.55805 2.746-1.03439-1.1362 1.5623 3.4163-.13111-3.4596 1.93309 1.8601.17257.0007-.002m-33.3029-102.92216-1.5591 1.13349 2.5706 2.80298 3.4847.45381-1.0497 2.16011 2.2258 2.21197 1.1762-1.35024-1.7135.16304 1.5798-1.38025.047.96884 1.802.0303-.4945.84958 1.4914-1.034.6061-3.89656 5.0833-3.63117.8399-1.67184-.9722-.68798-4.6935 2.84641 3.4647-3.55332-.329-.49335-1.342 1.43268.1265-.82213-1.0448.23549-.3691-.66206 1.7239-.12037.343-1.40094-1.8615-.5251 2.6122-1.06093-3.8267-1.45496-2.5406.48381-.031 1.08435-1.0133.014 1.2816 2.03806-2.4486-1.65161-1.1886 1.01271 1.3804 2.67103-.3504 2.27375-2.8679-3.90227-1.7961 1.54608-.3448 2.88434v.002M1141.84 797.9674l2.3037-2.17085.8128-2.54624-.9086-.12805.93-.4362-3.6538-2.36099.4699-1.06013-.8186.98524-1.5295-.83206.095 1.49357-2.3479.31424.9249 1.51457-1.6308-1.39763-.2803 1.64437-1.7842-.80398.071 3.03741-1.2047-2.52345-2.8727-.78717 1.5307 1.63792-1.7665-.83883.7722 1.53868-1.2824-.17738.6948.75666-1.0333.2901 4.028-.62981-1.0289 1.09219 1.2904.26075-3.0714 1.05368 4.3517.777-1.4013 2.22741 2.2976-.94497 4.0046.90297 2.039-1.88804v-.001m31.2516 32.15372 2.4943-2.46668-2.9186-5.44873.8968-2.16465-2.3981-1.76337-1.626 1.51152.3026-.98557-1.0126-.1219.2411 1.46297-1.0127-.57476-.6264 2.19919 1.2827-.31749-.043 1.64316-2.8712.97908 1.6394 1.01238-.5864 1.6652 2.6556-.25837-1.0132 2.79409 2.1522-1.17114-2.4928 2.48582 1.2408-.16519-.7792 1.44555 1.5447-.71521-.7717 1.29014 1.1698-.87199-.2002 1.13303 2.7302-2.59322v-.004m-107.4089-74.66933.048 1.96444 1.8408-.15968-.6258 1.34617 2.9264 1.5811.8989-.79192.1969 1.70555 2.6375-.0554-.4375-.68471 1.5142-.7437-.5652-1.55038-4.1866-.93352-.4954-1.61289-.7541.46791.934-1.62529-1.1922-.14987 1.1937-.0722-.2194-1.00472 1.2182 1.05762-.6372-1.37194.7896-.19289-2.0166-.55128 1.3975-1.07471-1.2237-1.42286-1.5054 1.99267 1.4926.7498-3.2101 3.11563-.019.0171m-9.3339-12.16425 1.9398.24451-1.3561.60439 1.5139 1.27812-2.8092-1.10482-.3289 1.55086 3.1799 1.06027.9098 1.53215 2.7017-.96216.2755-.90321-1.4084.49975.045-.8002 2.9727-2.04007-1.8852.009-2.3472 2.02124-.5878-1.29101 2.3752-3.20131-.9758-.24057-.1268.80286-1.3209-.79241.3865 1.04499-1.5588-.9348.854 1.05804-2.037-.92643-.4184 1.48719.01.003m19.3796 3.65714-.1377 1.6836-.8223-.29635-.3409.84928 1.0327 1.0273.9982-1.07992-.7141 1.29955 2.5214-1.45703-.6551.88375 2.8422-.42809.4895-.9605-.9789-.33698 2.1636-1.76946-1.1388.43192 1.6687-3.83546-2.2423.39693-.2568 1.02111-1.437-.58632-.3031 1.34403-.3099-1.02006-.7582.46335.4969.94567-1.7038.60313 1.8308 1.66226-2.2385-.8441-.01.002m68.677 3.17554 1.8463.0765-4.5067-4.02857-.1091-1.49691-3.6938-.22123.5569.64614-2.5105-.70466 3.4207 1.89022-3.1878-.92342 1.2246 1.16059-1.5345-.0141-.273-1.00565-.3056 1.60525 4.63 1.72932-.8456-2.03084 1.1468.67156-.2927-.87964 1.1463.18755-.4863 2.10567 1.1001.50067.6777-1.57628-.156 1.38524 1.1361-.19005-1.1387.75396 2.1549.35875m17.68-19.557-1.8206-.20332.2849-.50898-3.3277-1.53025-4.5597-3.88449-2.468-.046 2.9498 1.90098.8221 1.90344 4.39 3.17866 1.637-.32365 1.6798 1.32087.6141-.66278-.371.75609 1.3322 1.04234.3133-1.27162 1.1636 1.30237.091-1.63135-1.6218-.0527.214-.71474-.7144.50772.2291-.7426-1.3863.0397.5489-.37818-.0003-.002M998.07019 930.46847l2.56331-.0142-3.95825-3.27883.37012-1.35993-3.02262-2.05047-6.10354-8.81368-3.06179-2.75999-7.345-2.51996-1.26086 1.84026-1.68915-.57671 2.17038 1.23212 3.76143-.64281 2.12692 1.33098.35432.88272-1.32614-.41505.65996 1.18296 7.16564 5.80615.86761 3.55083 2.28344 1.45533.0996 1.12992-2.0142.81382 7.35854 3.20645.00039.00011m9.5535 10.51323 1.619-.83106 5.7722 2.84204 1.1512-.93882-3.5401-2.85522 1.5047-.2072-1.7241-.55569-.3967-1.49523-7.9291-4.01832-1.9348.10102 1.958 1.61233-.603 1.18169 1.0063 2.12965-5.1115-2.62619-.89422.45823 1.41026 1.98756 5.27016 1.46184 1.4296 2.69487 1.0091-.93986v-.002m84.4071-257.67852 2.0029-.13788-1.5517.10509-1.6421.1242.8117-.063 5.5669-.34459 2.2887-.0973-2.1132.0889-2.3019.12189 4.8686-.1525 1.4804.48703.9196-.0591-1.1821-.11403 2.0942-.12504.2143-.18758-1.4838-.0961-9.9673.44964-.01.00037m-38.0886 76.15055 3.1066-1.73142-.3772-1.59195 2.9359-.58584-1.7153-2.27037-1.0649 1.02627-.3213-.83169.074 1.55893-1.4377.56608-.1259-1.75126-1.4138.44461-2.0951 4.61432.8114.4939 1.316-.95375-.689.51356.984.50337.012-.005m-6.2065 30.03265 1.7225-.35728-.2099-1.44809-1.5345-.30935 1.3935-1.41783-.8806-4.18596-1.0157.41591.89-2.23757-4.7905 4.26234-2.2332.60683 1.9175.71978-.8435 1.92212 4.8416-1.30145-.5459 1.73957 1.2751 1.59092.014.00011m125.7232-54.1326-.3439-2.65553-3.6316 1.00041-2.2578-.35323-2.0723-1.27765-.183 1.04705.4732 1.1141.8526-.10135.6535.94819.1749-.81676 2.8203 2.13164 1.245-.0617-.3778-1.20177 2.6352.23229.012-.006m-166.8552-9.571.067.35068-.8842.0142.5153 1.09028.8178-.49465-.7181.76707 1.1104-.28132 1.1706-1.19069-.8692.0243.9367-.54968-1.7934.64389 1.5117-1.18212-.5646-.11602-1.2981.92266v.001m132.847 15.09398-1.8077.21525.2956.94981-1.3159-.49147 1.4964.96987-2.3866.0607 1.0901.59933-.5452.62067 1.5512.34041.648-1.17452.5618 1.11644 1.9249-.89087-1.5074-2.3157-.01.00012m-77.7772 10.78606 1.066.9544 1.4194-.34823 3.1716-2.89352-1.0979.26272-.4661-1.07314-1.4306 1.58359.9045-1.9125-1.5123 1.53717-1.3497-.64115 1.5436 1.47232-1.4992.0284-.7704 1.01169.021.0182m-16.2177-7.72797 6.1752 1.34138 1.8116-2.28653-1.1393-.60679 1.5005-2.01124-1.0674-1.76478-1.9207 1.1755-6.2007.27694.067.7715-2.7111 2.21558 1.76 1.28567 1.7158-.40243.01.005m-70.59657 29.88258.84109.75685-1.47326.61702-.27089 3.24257 4.5221-6.78372.86586-5.07586-.90813 1.15116.50027.60972-1.37906.16118.1676 1.12862-2.86433 4.19219-.001.00027m16.37942-19.42565-.91421.9794 1.6488-.81502.33954-1.09517.27281.60283 2.73749-3.11266-2.19713 1.30017-.0154.57994-.94617.0865-.9281 1.47307.002.00096m-6.06224 3.75873.61223.13325.38876-1.1127 2.65174-.54516-1.6825-.1812 1.25874-.2725.56203-1.45144-3.17564 2.33055-2.67854 3.54683 2.05182-2.44065.0113-.007m123.66137-56.80035-5.1419.11702 1.2064 1.22025-1.0072-1.00563-1.6749.75491 3.607.91022.6623-.89578 1.5228.93367 1.6188-.9066-.7933-1.12574v-.002m-49.4825 155.82743-.7204-1.40242-1.6893 1.80959-.8745-.15836 2.2384-1.55241.6708-2.51796-3.4989 2.73641.1451 1.81072 3.7253-.71133v-.0143m4.8338-117.47224-.7802-.93355-5.0806-.40428 1.1411.6623-.9794.92868 3.5118-.008-1.6132.96807 3.6882-.28689.1161-.92761v.00099m-3.0339 27.42033.8113-2.18785 1.6186-1.7596 3.5425-1.70377-.9107-1.0325-3.4281.26279-5.0101 3.37112 1.6573 2.17067 1.7166.87735v.002m137.0262 36.04161-.4159-2.34204-1.7034-1.05796.8304 1.49485-1.1223-.56782-.5995 1.52399 4.0771 2.08048-1.0643-1.13331v.002m-64.3611-88.36056-1.8595-1.2366-2.0419 1.04536.019.66864 1.0336.0222-.7574.37225 3.6087.6734.0009-1.54327v-.002m-63.1075 32.24365 2.2838-2.06963v-2.69417l-1.5664.95575.3132.75786-1.8052.24789.929.4797-.1538 2.32771v-.005m-71.68657.6388 1.50557-1.64494-.82386 1.27432.77016-.19395.8017-1.88849-2.57565 1.63655 1.13132-.47034-.80656 1.28368-.003.003m56.78759 12.45494 2.2248-.0879.3824-1.14623 1.2828 1.24181 4.3014-1.53138-2.8-2.68744-5.4063 4.2047.015.006m90.0834-14.73567-2.319-.49272-.2614 1.04521 2.0462 1.08757.046-.97176 1.221.5184-.7309-1.18942v.003m-111.6954 66.15723 1.4429.1497-.44.57418 1.5202-1.32581-1.0318.82573 1.0028-1.77335-2.4999 1.55079.01-.001m58.1181-28.07935-1.0756-2.17562-1.7424-.31645-.5082 1.83296 1.7272.34795-.8544.86018 2.4469-.54337.01-.006m164.3047 56.88886 1.6718-2.34509-.3871-1.1486-.2084 1.41205-3.6683 2.25363.7099 1.10788 1.8804-1.28205v.002M949.91979 967.24117l.60641-.16473-1.29676-3.48433-.51385.0583 1.15979 2.53764-.9575.001 1.00005 1.05279.002-.00077m74.98107 99.58733.7823.311-1.9066-1.0167-1.1122-.4753.3111.2151.8309.4812 1.091.483m-31.28804-312.57284-1.11249.23689-.15359.54152.7172-.24166-1.07502.41614.2842.44152 1.3397-1.39441m140.19884-41.83728-3.9816-.82212-.4726 1.26918 1.5068-.0843-1.2741.74853 4.2308-1.11114-.01-.00018m-1.4673 4.14538-2.0899-.72581-1.3925.29324-.475 1.36534 4.2147-.0238-.2593-.90808v-.00096M996.71311 908.1963l.43033.72509 1.05875-2.04671-1.063-1.86475.77706 1.7786-1.20358 1.39678.00044.011m227.74589-54.97752 1.6163-2.4644-1.7791-3.94346-2.3236-1.40462-1.2895 2.3081 3.78 5.51175v-.007m-172.0553 2.22334 2.5171-.98623-4.4229-1.25767.522-1.98919-1.3191 1.23209 2.6991 2.98933v.0117m-61.12234 79.00009 2.24343.81502-1.59604-2.4547-3.87177-1.71521 1.25753 2.36108 1.96598.99207.00087.002M1010.991 713.6932l.2463.52377.8748-.78035-1.046.40483.6381-.97547-.7115.8242v.003M1266.0346 827.297l.1495-2.92887-.7371-.45134-.3281-2.32866-.7353 5.58101 1.6496.13082.001-.003m-230.3055 147.69212.3601-2.08596-2.3916-.19148.5856 1.42474-1.5824.35238 3.0287.49283-.0004.008m-41.13229-60.57639-.71049-.403.6226-.72661-.79249.19351.39686 1.41342.48782-.4751-.004-.002m74.32579-149.14067.076.97478 2.9583 1.03004.2913-2.26063-2.1906-1.84803-1.1314 2.10196v.002m111.3261-24.26591-1.2162-1.43601-1.3367.46733 1.3417 1.21912 1.211-.24639.0003-.004m-122.8234 104.64921.5935-.70314-1.4837-1.63084-3.5625-1.7933 4.4483 4.12922v-.002m193.274-18.62407.3217-.57696-1.0047-.55524-.3146 1.14192.9963-.0101.001.00033m-251.69564 85.88317-.32444 1.25654.53264-1.62592-1.22044-2.13178 1.01505 2.49946-.003.002m37.25993-203.74335-.1042.69 4.2564-2.28335-.9963-.058-3.16 1.65132m-39.02387 40.47328-1.69055 1.1524.0269.59146 1.33412-.48192.34031-1.27458-.0107.0127m25.53049 196.67615 1.3478-.95445-4.9668-1.48779.01 1.44521 3.61.99796v-.00088m171.7639-142.70016.8748 1.12802 1.1332-.58606-1.4055-1.37673-.6001.82928v.006m55.9808 29.13193-1.5733-1.39587-1.7845.27238-.2417 1.20129 3.5965-.0738v-.004m-85.1708-22.21661.4292.68563.4399-.96788-.6271-1.87609-.2394 2.15739v.00089m2.7968-42.56926-.2874-2.24918.1274 1.16398-1.1328-.74847 1.2874 1.83249.01.001M993.67266 912.79611l.95084-.85839-.69424-2.23052-1.17394 1.62457.91529 1.4634.002.00089m130.08769-138.57088 2.2142.54418-1.7058-1.75499-1.3802.2315.8667.98015.01-.00084m-139.15358-11.69686.41159.0701-1.13384 1.0611 2.4442-2.19233-1.722 1.05954v.002m-5.80885 152.49518 1.22785.34061-.11427-1.20159-.68823-.60309-.44139 1.45441.016.0101m182.97312-192.11336-1.1071-.16306.5497.74459 1.2339.0512-.6728-.62654v-.006m-108.3333 29.44525 2.063-.69071-.4909-1.3775-.9152.11775-.6728 1.9407.016.0101m47.0516-50.53813-1.8446-.21934-1.5283.762 4.1995.28208-.8257-.82357-.0009-.001m3.4488-2.77676-.4788.37854 1.5113.58072 2.2299-.73238-3.2573-.22705v.00017m109.6204 160.01074.3358-1.8114-.9023-.45536-1.1591 2.16971 1.7255.099.0001-.002m7.6434-13.98798-.1999-2.62783-1.8396-2.5121-.3366 3.04712 2.376 2.09268.0001.00011m-176.4893-81.15728.3906 2.68079 2.1365.038.9272-4.03113-3.4583 1.31013v.002m-46.22937-14.83558 2.23377-1.1764.8714-1.23781-4.19583 2.18362 1.09027.23262.0004-.002m241.15736 101.84667-1.7329-5.52481-4.6976 5.27407 1.0641 1.10079 5.3637-.84754v-.003m-214.7164-138.19697 1.6184-.54139.8082-1.13655-2.4774 1.22737.049.45114v-.00057m-14.8584 3.60854-.8528.91237 1.619-.92499.1232-.96172-.8874.97245v.002m53.387 64.15015-1.1512-1.48386-2.3107 2.54623 1.9714.53427 1.4692-1.58326.021-.0134m-19.3089 9.22317-1.9561.36915-.4393 1.04862 3.8679-.79261-1.4689-.6262v.001m-8.6213 166.71122 1.4499-.44965-.8255-1.08366-1.1354.363.5106 1.17284.0003-.003m31.7511-214.05997-.721-1.42282-1.3286.47062.1662 1.22423 1.876-.27663.01.005m66.1612-25.90784-.9282.0147.8004.96022.8773-.45504-.7474-.51614v-.004m-61.5917 31.83943 1.8984-.47654-.023-1.97276-2.1602 1.47742.2694.9644.015.008m232.5756 174.91657.042-.53543-.2307 1.39858.093.10389.096-.96477.0003-.002m-128.4769-191.72057-.8068-.46316-1.2733.99208 1.405.3027.6751-.83162m23.3146 50.89231-.195.62387.9887.0593.1244-.91775-.9181.23465m-174.0661-68.47692.9092-.4724-.014-.61095-.8121.38956-.083.69379m144.0002 100.14696-.01 1.1801.8691-.82893-.8566-.35221v.00099m-101.4444-73.46795 1.5402 1.37262.5526-.97999-2.0947-.40061v.008m56.4208 31.66977-1.8874-.66866-.9203.86475 2.8052-.19569v-.0004m162.2254 30.02803-.4602-1.09042.9438 2.92343-.4822-1.82462-.001-.008m12.1789 61.43474.2797-.8077-.5788.13191.2967.6846v-.009m-73.6363-35.30721-.7404-.14133 1.5215.49056-.7796-.34876v-.00045m-286.42254 14.45705-.14824 1.09437.68507-1.24781-.53549.15115-.001.002m229.5329-30.9205-1.5495-.56817 1.9507 1.36086-.3993-.79194v-.00079m30.9862-18.92753 1.5552 2.42929-2.1135-3.66841.5579 1.23531.0004.004m-31.6274-25.6528-1.0633-1.06007.3206 1.25177.7391-.19236v.00066m-29.1918-18.41792 1.3881.18939-2.6092-.74865 1.2189.55777v.002m106.7204 89.65848.8129-.50894-1.0477-.63973.232 1.12522v.0235M1028.979 1068.6228l-.5889-.2564-.6336-.2575 1.2206.513v.0009m-26.3703-144.98649v.006l.5588-.76907-1.5606 1.30767.9994-.54416m8.0072-192.59022.9714.0106-1.342-.41028.3662.40091v-.001m130.8049 2.08129-1.2607-1.69447-1.396-.10803 2.6566 1.80444v-.002m-150.609 20.76898-.4857.65277 1.55278-1.29372-1.06238.63496-.005.006m210.8381 31.41336-.3043-2.58921-1.304 1.47731 1.5954 1.11273.013-.00084m-193.2695-58.80285.3463.73538.8026-1.02317-1.1439.28569v.002m56.8594-21.20076-2.1928 2.03403 2.6614-.83691-.4683-1.198-.0004.00088m112.3204 210.61399 1.2018-2.38702-2.0679 1.35455.8614 1.02936v.003m-10.4352-152.41916-.7654.0373 1.0391 1.60059-.2728-1.63628-.0009-.002m-95.198 247.20385 1.2103-.9732-2.5886.06 1.3724.9131.01.0005m-5.7872-206.25292.7786-.65369-1.1502-.29917.3691.952v.0009m6.6723-104.45922v.4389l1.5625-.36846-1.5622-.0712v.00065m-51.443 164.31942 3.1804.94802 1.3524-.81541-4.5305-.13424v.002m41.9719-110.983.7572 2.14447 2.0638-2.33367-2.8125.18935-.01-.00015m-67.10161-3.24417.87981-.71491-2.76149 1.42381 1.8831-.71055-.001.002m.46193-1.37851-1.80157 1.20687 4.25128-2.7635-2.45055 1.55376.00083.003m58.81497-57.47866 1.5631-.33702-2.4599.46717.894-.12921v-.00094m248.3214 150.63975-.3138-1.78792.3031 2.75101.012-.95924-.0008-.004m-118.8249 71.13162-.072-1.92329-1.2231 2.82915 1.2932-.90522v-.00066m-133.2143-139.01501-.3954.8312 1.2991-1.45999-.8956.61662-.01.0122m-2.4096 7.40219.76.6561-.3465-1.92976-.4149 1.26471v.009m-23.7825 36.96199 1.5621 2.14039.2583-1.89447-1.8215-.24726v.00099m-46.0748 63.35058-.001-.00011-.65934-.34486 1.71319.92575-1.05251-.58074m278.88256-49.3499-.566-1.74893.013 1.71149.5541.0411-.0006-.004m-200.1379-91.26802 1.4182-.26953-2.0392-.37661.6203.64435.0007.002m13.2263-55.1351.1831.007 1.2575-.29061-1.4261.28078-.014.003m186.3191 274.01529.6251-.0295.4708-1.89357-1.0961 1.91831.0002.005m-131.903-193.86806 1.1653-.38462-1.0948-.94719-.072 1.33079v.001m14.3736-36.85 1.1383-.25874-.9024-.58427-.2421.84735.01-.004M977.02731 990.06611l.55089-.37684-.86122-.46375.30604.8425.004-.002m26.85818-60.82996.5934-.93526-2.1088.22968 1.5127.70732v-.002m22.3584 40.59471-1.196-.27515 2.0092.49118-.7948-.22503-.018.009m106.3182-265.12986-.2961-.58037-1.0283.20101 1.3161.37652.01.003m53.3074 205.21241-.1547-.80571-.8259 1.62056.9813-.81199-.0007-.003m-135.1163-117.59104 1.0408-.64414-1.092-.58193.049 1.22407v.002m110.9021 171.00426.9414-.16499-1.1133-.88689.1782 1.04405-.01.008m-58.4782-215.98497 1.0688 1.56648.085-1.18427-1.1302-.39993-.023.0177M1002.9006 936.0754l-.8304-.45586 1.2361 1.2823-.4011-.82406v-.002m140.1915-190.32186-1.0008-.92866-.1209.81316 1.1161.11551.01-.00001m-81.4129 28.12061.9998-.32096-1.4924-.41664.4929.75127-.0002-.0137m-16.1899 21.00254 1.4658-.34706.4197-1.31217-1.8822 1.64876v.0105m-34.2064 166.33602.0009.001.7382.81497-1.1359-1.5085.3968.69206m170.0185-46.35513-1.0001-.30846-.2363.98126 1.2346-.66942v-.003m-70.2593-231.33445.7011.12249.8592-.10835-1.562-.0143v.00019m-60.242 20.23495-.082.047-.6617.50058 1.5708-.98672-.8274.43913m16.2756 41.54663.8176-.95695-1.6389 1.52531.8284-.56238-.01-.006m73.0843-17.16177-1.7959-.74719.4826.83543 1.3272-.0788-.014-.009m-112.295-27.41826-1.0245.45558 1.9147-.83126-.8817.37126-.01.004m44.4349 48.59457-1.4-.66152.7528 1.40013.644-.73v-.009m-7.42 31.76735-1.0591-.48118 1.0426 1.31098.022-.82192v-.008m188.5117 190.62735.1458.49287.58-1.13619-.7258.64117v.002m-129.4781-202.9322 1.8008-.18592-1.1815-.50768-.618.69074-.001.003m-50.3012-17.55685-.5323-.51988-.5572 1.07904 1.091-.54889v-.0103m128.4518 52.00884-.7441-.73171-.075 1.05932.8191-.32761m-137.1829-112.70888-1.3758.81437 1.6328-.49873-.257-.31564m56.3627 90.17098 2.7234-.95651-.8414-1.20213-1.882 2.15864m2.0817-7.72813 2.3328.11457-.9137-.69841-1.4191.58384m-100.0679-69.58886-.3715.3137 1.0448-.56307-.6733.24937m177.2195 88.18858-1.5403-3.09996.091 1.86791 1.449 1.23205m-213.25082-31.90417-1.20154 1.35098 1.99319-2.06854-.79165.71756m3.93407 158.81203.58015.7083-.57804-.71627-.002.008M1166.6157 766.1524l-.4124-1.14516.409 1.14048v.005m-122.6844-3.51784-.6845.78161.6891-.78178-.01.00017m125.8501 54.49729.2645-1.03352-.2727 1.01817.01.0153m-231.41862 22.34915-.42877 2.17549.43301-2.17618-.004.00066m207.59348 48.41143 1.9818-.0169-1.9822.0141.0004.003m83.4382-57.9611.7024-.66579-.7057.66115v.005m-231.18595 87.62078.7581.94917-.75533-.95076-.003.002m24.55338-213.89389-.6702.5462.6748-.54709v.00089m135.2959 93.87229.9055.64185-.9032-.64288v.001m9.0917-42.29492-.7279.26005.7268-.25837.001-.002m-28.3049-28.1841-1.9174-.6381 1.9152.63991v-.002M934.60492 839.80247l.0004.00023.54923-.4672-.54964.46695m205.28549-106.16494-.1198-1.42408.1195 1.426.0002-.002m-69.4949 275.53407.049.7782-.049-.7892v.011m-5.3844-201.63474.6237.63539-.6215-.64054v.005m4.745-9.58687.214 1.19663-.213-1.1992-.001.003m96.8541-36.67061-.3698.79973.3715-.7993v-.00043m-158.265-41.9106-.8314.49346.8334-.49392v.00047m59.2709 81.85504.9395.19224-.9363-.19971v.007m146.9642 54.75034-.01.003.7195-.24763-.7145.24469m-231.87018-90.81201-.003-.00088-.59368.14478.59621-.1439m77.28535 41.20844.064-1.00502-.067 1.00354v.001m107.9791-38.53535v.00099l-.07.96281.071-.96397M973.74641 958.70901l.00046.005.26005.86481-.2605-.86998m78.83968-166.61483.06-.9625-.064.96456v-.002m116.932 12.70128.667.68153-.6716-.68891.01.007m-103.6613 16.67405.8669.39472-.8651-.39581v.00099m38.1504-17.88894 1.216.83827-1.2158-.84078-.0001.003m-67.3281 160.36276.3196-1.0648-.3354 1.05768.016.007m194.2328-133.86274.01-.006-.5458.48731.5399-.48152m63.4074-17.99621-.6686-1.63335.6605 1.61728.01.016m-155.6907-99.25858-.8233-.0344.8253.0356v-.00099m57.6679 67.28735-.1691-1.16525.1531 1.15212.016.0132m-57.6242-50.24036.0009.007.4398-.98461-.4408.97759m-1.6554-.77521.7234.51888-.7237-.52053.0003.002m-41.5321 82.73857.9209-.44565-.9206.44284-.0003.003m73.6967-13.38015.2266.71818-.2221-.72049v.002m-88.8753 269.54441.4242-.4659-.4244.4647h.0002M966.66322 925.43581l-.003-.002-.66086-.0254.66415.0276m-15.61444 41.70446.85668.51946-.85478-.52025-.002.00078m210.44763-247.93953-.001-.002-.9902-.78856.9914.79014m-10.6791-1.85739-1.0181.11198 1.0161-.1069v-.005m-173.75543 56.57859-.56286 1.23087.56748-1.23414-.005.003m265.10341 61.81222-1.2213-.62324 1.217.62165v.002m-273.57599 76.49287.75772-.0571-.75546.0555-.002.002m275.92543-74.97527-.3097-1.07815.3081 1.0759v.002m-52.8373-54.27678.73.25141-.7308-.25506.0008.004m-32.7167 15.41003-1.1394-.64142 1.1394.6415m11.2151 17.46599.0008-.002.2285-.68742-.2293.6891m-109.0128-40.12831 1.768-.48477-1.7639.47803v.007m120.5758-51.73692-.8466-.47662.8399.48108.01-.004M963.76863 920.39908l.58925-.58636-.58672.57627-.003.0101m-1.2385-47.22786-.004.002.71498-.0707-.7108.0683m48.75226-141.57872-.1297.53965.1343-.53789v-.002m-13.73308 15.86922 1.01797-.42237-1.02036.4211.002.00099m17.50797 124.34542.85-.86268-.8521.86005v.003m20.6601 86.16976.5751 1.07904-.5732-1.09724v.0182m-33.752-35.97778.8457.755-.8436-.76304v.008m32.2662-215.68086.01-.004-1.3146.64321 1.3088-.63921m125.0403 93.28521.8575.50757-.8575-.50759m-34.3245-36.28441v.00079l-1.4116-1.81668 1.4098 1.81589m33.9858 195.26338 1.3795-.0544-1.38.0465.0005.008m37.1259-153.08745-.8984-.24434.8963.24601v-.002m-163.345 9.4861 1.2469.24458-1.2401-.24622-.01.002m-38.57569-61.74972-.003.003 1.02725-.89292-1.02462.88959m294.39346 61.60472-.3594-.24706.3633.25314v-.006m-346.23931 2.00874-.0391-.79175.0377.78477.00099.007m225.25572-58.45044-.5366-.90591.5338.90934v-.003m55.596 69.45532.9232 1.00492-.922-1.00594-.001.00098m-51.1833-52.79431-.288-.70047.2794.69265.01.008m73.3643 53.87591.6101-.35966-.6129.35858v.00099m6.3711 3.47108-.743-.0168.751.0278-.01-.011m-126.5241-65.33791-.6964-.7506.696.75205.0004-.001M957.77915 873.40398l1.23009-.24076-1.22902.23834-.001.002m67.48518 193.63164.7074.3092-.7086-.3097v.0006m-19.3196-340.27744.1665.3304-.1664-.33152-.0001.001m240.0012 112.32543.8159-.12857-.8174.12632v.002m-254.75061-83.61711-.00097.00049.82853-.3875-.82756.38701m45.73661 205.97692.01.003-.5739-1.13972.564 1.13641m-85.21413-79.02157.78347-1.10133-.77944 1.09155-.004.0101m189.4411-107.85336.475-1.28612-.4875 1.29093.013-.005M1037.414 971.97314l-.027-.006-.9133.082.9402-.0757m33.8206 36.91386-.3031.6397.3177-.638h-.015m-70.6784-88.10942-.56705-2.66343.56625 2.66157.0008.002m298.0223-64.24257-.3257-.0407.3261.0446-.0004-.004m-366.32994-.62894-.0253 1.20075.0263-1.19905-.001-.002m319.83894-26.14716-.886-1.21784.8794 1.21573.01.002m-198.5-137.97742-1.5929.36284 1.5962-.3626v-.00024m111.4768 120.20798.7101-.44212-.7115.43947.001.003m-139.672 52.86966 1.2473.22381-1.2491-.22466v.0009m46.4402-90.65241.971-.29467-.9713.2939.0003.00077m-81.47836 143.32984 1.00958.90965-1.00883-.91213-.00075.003m183.48726-133.77575.4199-.73177-.4238.72748v.004m-99.7047 227.02603-1.6262.082 1.6292-.082v-.0003m137.0371-149.06054-.546.80917.5477-.81011v.0009m-29.1561-137.70746v-.004l.1569.55923-.1542-.55499m-173.5876 2.36018.5269-.51673-.5269.51664-.0001.00011m166.9076 94.48982.1383-1.42034-.1424 1.4127v.008m-2.0243 93.44962.6865.95877-.6836-.9639v.005m111.017-70.3086.3998-.25109-.4059.24022.01.0109m6.5786-30.90518-.096-.75486.093.74909v.006m-284.0907-92.74551.4601.12096-.456-.12194v.00098m-29.88272 50.0951-.63876.87819.63936-.87587-.0006-.002m40.82122-63.36435.0007-.001-1.5709 1.05473 1.5702-1.05352m-5.9802 171.6752-1.1983 1.68986 1.2089-1.68503-.011-.005m144.1563 79.12597 1.1205-.56337-1.1209.55802.0004.005m-100.7979-161.89433v.002l-.7713-.48286.766.48108m13.3259 214.41524 1.3517.1815-1.3504-.1825v.001m236.4859-90.49065-.1135 1.11868.1143-1.12536-.0008.007M975.16664 776.99118l-.56245.62106.56698-.6245-.005.003m115.87243 242.98466.1352-.6897-.1379.6916m-57.3418-51.26443.6033-.55842-.6033.55521v.003m-65.0654-92.13723.50701.58126-.50341-.58177-.004.00056m206.0561-93.2811v.001l-.4289.95685.4307-.95815m-182.36982-28.75642-.73127.53924.73352-.54039-.002.001m73.39187-13.73376 1.1207-.57655-1.1219.56671.001.0101m174.0721 113.26926.6565.0839-.6593-.0886v.005m-146.9547 208.19523.9254.028-.926-.037.0007.01m48.6846-331.43197-.8469-.20893.8472.21278-.0004-.004m-68.2109 116.42182.8865-.16138-.885.15286v.009m-24.2752-67.0627-.86 1.28768.8622-1.28533v-.002m-54.33533-26.9794.90755-.9094-.91487.91298.007-.004m261.27435 78.65158v.002l.1399-.92047-.1415.9183m-1.8704-2.54413-.01.006-.5184.63838.5256-.64445m-164.6697 233.86258.7313-.1295-.7316.1283h.0002m.977-276.97481v.002l1.1843-.19449-1.1816.19228m164.1861 46.96205-.0009.001-.1073.68234.1083-.6837m-111.3361-91.18301.1971-.78135-.2081.79885.011-.0175m-131.0094-30.10743-.124.95513.1257-.95549v.00037m93.7908-11.79052.6855.36116-.6841-.36177-.001.00062m152.2075 134.7904-.2472-.92562.244.92114v.005m-157.4397-20.16622-1.0175-.56774 1.0166.58144.0009-.0137m-73.9963 252.98927.8182.3497-.8262-.3532h.01m40.2304-56.5347 1.0289-.6806-1.029.6428v.038M995.93623 905.14l-2.11808-.30235 2.12218.3045-.004-.002m181.03807-82.03544.889-.52915-.8917.524v.005m21.9776-20.56096-.3034.69915.3034-.69904v-.00011m-34.9299 157.11534.625-.79412-.6295.79089v.003m-87.557-171.22774.6971-.46756-.7001.46931v-.002m-52.3424 157.8953.9536.1788-.9526-.18689-.001.008m-68.41559-71.31649 1.42166-1.29847-1.42049 1.29593-.001.003m39.76904-123.38272-.48384.64138.48611-.64036-.002-.001m115.07911-49.38616.035.69489-.022-.6993-.013.004m142.8055 129.23243.069-1.06963-.07 1.07569v-.006m-140.2767-147.87505-.4358.0463.4392-.0464v.00014M950.31659 965.61072l.72798.70611-.72804-.71949.00011.0134m236.22886-136.96617.8557-.53579-.8571.53311.001.003m-18.7864-70.11755-.5619.32158.5638-.3217v.00012m-102.6257-11.63711-.9086.80945.9082-.79224.0004-.0172m174.863 53.2568v-.00099l-.8204.26095.8178-.25981m-100.216 85.82201-.8982-.21084.9062.21861-.01-.008m21.1238-164.93867-.4522-.47938.447.47967v-.00029m-19.486 164.46735.9263-.0135-.9352-.0501.01.0634m-122.2833-179.36751-.8539.85145.8643-.85634-.01.005m-22.59278 45.01629-.66659.83946.68858-.84954-.022.0101M968.6714 908.39825l.72045.12103-.72312-.13103.003.0101m31.05294 6.03511.77003 2.27776-.7663-2.29103-.004.0133m-14.95894-151.22812-.60995.58906.62631-.5988-.0163.0101m219.13558 39.69084v.002l-.1955.8249.1974-.82674m-162.409 164.22673-.554-.83893.5514.84053v-.002m32.3219-281.63555-.5111.0929.5118-.093-.0007.00011m-10.5361 62.36888 1.2186.27803-1.2228-.28124v.003m-75.926 11.19785-.31284.6161.31994-.61985-.007.004m25.7082 202.65381.4864.89604-.4855-.90373-.0009.008m-55.7495-88.1153.56368-.30508-.58938.3158.0256-.0108m54.2456-143.28568.7271.0231-.715-.0262-.012.003m53.6082 22.30911-.8915-.15338.8817.15388.01-.00049m-81.18664 10.2935.00052.00099.9869-.96878-.98742.96738m24.01244 118.51989.9498-.56421-.9458.55342v.0108m134.3896-149.72545-.2076.46331.2083-.45909-.0007-.004m-120.8779-27.07349-.099-.2468.097.24839v-.002m70.0772 314.26027 1.2463-.1028-1.2463.1006m81.729-118.93992.9462.0473-.944-.048v.00067m130.4219 27.88627.344-1.50235-.3431 1.49801-.0008.004M941.84281 819.92104l-.14185.97628.14494-.98019-.003.004m168.8432-119.7346.6578.36656-.659-.36729.001.00073m-17.1621 83.47755-.028-1.17438.025 1.17703v-.003m-45.3896-19.44523-.2633.74913.2731-.73899-.01-.0102m199.8853 60.22458-.3108.60127.3121-.60094v-.00034m-80.5181-55.70772.1426.79369-.1413-.79474-.001.001M992.06048 920.34389l-.15816-1.19929.1534 1.21776.005-.0185m201.76008-78.02878.7166-.0502-.7178.0477.001.003m47.3149-43.25796v-.00077l-.4538.53477.4564-.53398m-201.8985-103.15965-.5827.30153.584-.30163-.001.00011m-69.77885 182.50475.28119.68351-.27825-.6854-.003.002m106.65461-134.37011 1.0151-.93854-1.0146.93472-.0005.004m-50.1579 204.2511 1.0714.0615-1.0705-.067-.0009.005m114.1338-209.39461v.003l-.1874-.75751.1856.75476M953.1326 969.49396l.88239.12508-.88242-.12716v.002m351.11613-123.1395-.02-.64265.019.64048.0006.002M975.30939 776.884l-.29249.67463.29381-.67607-.001.00099m226.57899 23.09139-.9743-.54702.9666.54761.01-.00056m-35.6291-41.38133.1853-1.38855-.1891 1.3887v-.00015m-101.404 20.07127-.4611 1.04316.4666-1.03036-.01-.0128m98.6714 178.45785.4137.63468-.4141-.63723.0004.003m-186.74257 33.67933.51317-.0794-.51339.0751.00022.004m-12.62008-72.44749.001-.00022.54529-.65046-.5463.65065m67.04406-219.0221.3894-.25968-.4087.26693.019-.007m-37.7867 204.66959-.002-.001.46474.82725-.46267-.82578m55.41313-144.72329-.001.001-.4443.6908.4457-.69219m8.0645 10.11102-.4885-.75674.4846.75913v-.002m3.0036-14.73142-1.1177-.73126 1.0962.73317.022-.002M948.55987 964.36954l.61109.84351-.61121-.86582.00012.0224m47.97005-59.6249.68269.48398-.68097-.48465-.002.00066m141.64726-176.63055v-.009l-.5793-.56943.5816.57808m-159.3184 41.38329.12271.64045-.12058-.64174-.002.001m-44.84825 91.75631.18058-.91408-.18346.90994.003.004m137.3368-175.24793-.5405.12114.5436-.12123v.00009m-15.709 165.70986 1.6883-.87234-1.6811.86559-.01.007m54.3087-55.06225 1.0516-.37318-1.0445.36503-.01.008m-23.0281 218.82983.2831-.6242-.2831.6176v.01m-13.2872-161.14973-.001-.003-.5719.56344.5732-.5601m-51.4782 10.76269.802.10408-.7999-.10948v.005m-85.62615-7.21781.17079.67203-.16729-.6789-.003.007m104.73925-162.52216-1.5107.53925 1.509-.53809v-.001m182.3624 133.45426.7239.35062-.7247-.35734.0008.007M1068.4451 1011.69l.5554-.4977-.5628.4935h.01m103.3115-195.11852.783.26074-.8023-.29635.019.0355m22.7782 26.34153.6128.45959-.6128-.46288v.003m.01-60.44806-1.4536-.64263 1.4517.64224v.00039m-102.0678-4.55058.223.69295-.2197-.69519v.002m-60.4015 173.1282.6841.65749-.6834-.66281-.0006.005m43.9135-192.22893v.006l.5396-.54193-.542.53587m-32.5011-51.71032-.4333.43488.4347-.42807-.001-.007m-38.8216 225.90783-.9316-.60758.9293.61745v-.0101m267.5799-96.84097.1564-.60074-.1571.60236.0007-.002m-13.3879 167.84064-.01.3688.021-.4069-.014.038m-21.509-138.73056-.2839.75355.2873-.75041v-.003m-139.8128-51.20988.4915-.64536-.4907.63432-.0009.0111m98.5264-9.09213.7067.005-.7065-.009-.0002.004m-186.9798-70.48665-.016-.0102-.4048-.24941.4207.25957m114.063 24.328-.1564-.6954.1549.69814.001-.003m97.589 81.00351.4142-.67453-.4249.65728.011.0172m-152.2874 171.11766-.4803.5957.4847-.5917m-8.9819-213.73246.7313 1.18606-.7324-1.18845v.002m.6938-47.69593 1.1193-.75536-1.1293.73656.01.0188m8.4835 260.65158.7792.035-.7766-.038m-33.9018-199.44849v.004l1.3561-.64976-1.3532.64532m29.1308-36.20684-1.3188.2368 1.3233-.21864v-.0181m5.7329-28.0709-.3129-.73874.3057.75282.01-.014m-81.32909 11.77316-.009.00085-.14241.64609.15176-.64693m74.69274-16.42836-.6224-.24981.6254.2522v-.002m-82.03967 181.96955.8054.61872-.80207-.63136-.003.0127m129.38954-226.95063-1.0889-.0282 1.0874.04.001-.0118m83.9152 105.06221.5762.5533-.5724-.5526v-.00067m53.4777 23.86388-.111 1.05816.1143-1.05375v-.004m-50.8244-21.52254.3591.95793-.3549-.95728v-.00067m-105.7214-29.56399-.8897.47645.8907-.47501-.0009-.00099m-6.2119-16.84059-.7201-.42785.7183.43624v-.008m53.4253 128.94932 1.4281.0964-1.4289-.10214.0008.006m-74.7251-137.70402-1.0771-.38306 1.059.38347.018-.00042m-23.7556 11.35371.2364.52445-.2236-.53321-.013.009m118.7479-42.24391.5514-.39606-.5626.39239.011.004m33.7921 96.24202.4513-.6469-.4631.62996.012.0169m59.8669 25.6939-.5121-.58608.5087.59008v-.004m-181.5165-86.72051.9767-.73568-.9864.70347.01.0322m-65.4989 171.49803v.0109l.6876.55948-.6927-.57036m100.3962-125.9121 1.0231 1.54883-1.023-1.55428-.0001.005m-42.3964-50.41336-.3724-.4629.3671.45908v.004m-26.2301 62.8125-.8747.47922.8693-.46665.01-.0126m11.9362-96.07085.2223.3161-.2105-.31516-.012-.00094m92.6143 14.42059-1.0102-.44779 1.0103.44971-.0001-.002m-50.303 58.22321 1.0175.0567-1.0104-.0583-.01.002m-100.1729-30.61371-.66179.02.65937-.0165.002-.004m73.12952 18.43149-.4849.86223.489-.85445v-.008m113.6591 19.60047v-.002l-.5501-.64144.5513.64369M991.006 902.4114l-.24595.70569.2483-.70617-.002.00044m75.55615-149.50191.6342-.48447-.6464.47145.012.0131m34.5775-4.05331-.6547-.95696.632.96685.023-.0101m-9.9491 29.6605.555-.51972-.5561.5181v.002m78.899 22.1855-1.1847-1.8661 1.1798 1.85899v.007m-63.0829-54.42886-.6614-.61579.6614.616v-.00021m-.5233.34795-.5187-.51791.4895.51244.029.005"/>
    </g>
    <path fill="url(#f)" d="M357.84019 424.68259c.1462-.28682.2869-.58193.4303-.866"/>
    <g fill="none" stroke="#6c9d31" stroke-linecap="round" stroke-linejoin="round" stroke-miterlimit="3.86400008" stroke-width=".17380001" transform="translate(-1542.594 233.72374) scale(2.75797)">
      <path d="M756.279 60.798c-9.658-10.974-23.153-18.276-37.53-20.85-3.226-.58-6.542-1.183-9.817-1.248-2.688-.054-5.378-.072-8.066-.108"/>
      <path d="M738.185 45.604c-8.483-4.852-18.189-7.553-28.009-7.501-3.357.017-5.908.198-9.311.488"/>
      <path d="M725.253 39.545c-7.91-2.685-16.25-2.695-24.388-.953"/>
      <path d="M716.304 37.005c-3.481-.616-7.042-.691-10.529.129-1.489.353-2.328.563-3.657 1.011-.422.141-1.252.446-1.252.446"/>
      <path d="M709.516 35.869c-2.649.172-3.384.087-5.547.963-.803.324-1.579.774-2.311 1.234-.267.17-.793.525-.793.525m2.901-3.178c-1.383.69-1.592.802-2.34 2.104-.2.35-.561 1.074-.561 1.074m-2.533-3.193c1.527 1.236 1.382.796 2.042 2.117.179.353.491 1.077.491 1.077"/>
      <path d="M692.622 35.821c2.533.192 3.214.114 5.27.994.774.331 1.515.785 2.215 1.247.257.171.759.53.759.53"/>
      <path d="M685.933 36.898c3.353-.578 6.797-.611 10.139.212 1.457.358 2.274.575 3.573 1.029.408.143 1.221.452 1.221.452"/>
      <path d="M677.175 39.303c7.857-2.459 15.631-2.501 23.69-.711"/>
      <path d="M664.576 45.005c11.631-6.402 22.938-7.725 36.289-6.413"/>
      <path d="M646.752 59.326c10.517-11.291 24.051-17.516 39.184-19.958 5.063-.816 9.719-.7 14.93-.776"/>
      <path d="M630.374 89.187c6.98-24.278 28.299-41.746 52.324-47.906 5.968-1.529 12.011-2.389 18.167-2.688"/>
      <path d="M629.915 125.932c-6.689-28.474 10.676-56.911 33.437-72.729 7.367-5.121 15.512-9.147 24.098-11.766 2.83-.864 5.729-1.638 8.651-2.12 1.271-.21 2.543-.412 3.817-.606.314-.047.947-.119.947-.119"/>
      <path d="M643.11 153.211c-3.474-4.587-6.019-9.926-7.308-15.548-.52-2.267-1.241-4.83-1.231-7.147.018-4.717-.373-9.087.15-14.15.163-1.578.447-3.143.699-4.709.582-3.593 1.558-7.17 2.667-10.637 4.711-14.73 13.135-28.306 23.925-39.356 7.128-7.3 15.405-13.592 24.609-18.042 2.997-1.449 6.104-2.726 9.289-3.701.681-.208 1.727-.525 2.491-.725.549-.142 1.097-.281 1.646-.416.271-.066.816-.188.816-.188"/>
      <path d="M660.105 169.097c-6.215-4.492-9.994-11.38-11.758-18.764-.55-2.3-1.158-4.701-1.316-7.062-.199-2.945-.379-5.892-.544-8.841-.017-.31 0-.624.003-.936.002-.218.021-1.682.036-1.895.453-6.19.88-11.278 2.058-17.242 3.328-16.849 10.373-33.256 20.09-47.401 5.484-7.982 11.979-15.446 19.734-21.298 2.516-1.896 5.17-3.618 7.973-5.062 1.051-.543 2.123-1.056 3.221-1.501.419-.172 1.264-.503 1.264-.503"/>
      <path d="M676.791 177.442c-6.248-2.416-8.735-10.17-10.102-16.098-.386-1.675-.729-3.379-.922-5.09-.248-2.204-.691-4.402-.678-6.621.035-6.23.096-12.463.177-18.692.035-2.577.48-5.131.745-7.695.474-4.611 1.287-9.198 2.123-13.753 2.618-14.24 6.794-28.369 12.604-41.639 3.182-7.268 6.9-14.425 11.709-20.761 1.565-2.064 3.26-4.039 5.145-5.817.786-.742 1.608-1.447 2.471-2.099.264-.201.803-.584.803-.584"/>
      <path d="M692.618 181.056c-.292-.162-.616-.279-.879-.486-.939-.747-1.322-2.493-1.634-3.556-.919-3.123-1.329-6.555-1.568-9.772-.195-2.66-.54-5.315-.537-7.982.013-9.967.036-19.935.075-29.9.02-5.131.435-10.265.802-15.385.978-13.587 2.259-27.122 4.128-40.615 1.079-7.779 2.336-15.606 4.215-23.238.647-2.629 1.335-5.227 2.177-7.801.266-.815.568-1.624.892-2.419.183-.441.577-1.31.577-1.31"/>
      <path d="M708.079 181.166c.26-.157.556-.272.784-.476 1.166-1.03 1.812-5.337 2.051-6.703 1.083-6.192 1.402-14.745 1.4-20.576-.004-5.356-.016-10.712-.029-16.066-.002-.365-.009-.732-.024-1.096-.224-6.184-.454-12.365-.69-18.546-.527-13.733-1.865-27.482-3.434-41.13-.936-8.14-2.021-16.328-3.659-24.363-.614-3.009-1.256-5.99-2.058-8.953-.235-.874-.495-1.75-.791-2.606-.164-.48-.336-.958-.51-1.434-.08-.211-.254-.626-.254-.626"/>
      <path d="M723.861 177.81c1.712-.888 1.867-.788 2.89-1.641 5.13-4.273 6.711-12.49 7.729-18.715.397-2.439.768-4.927.762-7.396-.012-5.889-.044-11.776-.1-17.663-.002-.358-.041-.716-.072-1.073-.419-4.663-.831-8.836-1.443-13.408-2.211-16.52-6.691-33.524-13.043-48.967-3.038-7.392-6.593-14.684-11.222-21.223-1.613-2.278-3.369-4.468-5.356-6.432-.753-.746-1.539-1.456-2.368-2.113-.255-.202-.772-.587-.772-.587"/>
      <path d="M740.489 169.848c7.642-5.15 11.028-13.972 12.692-22.697.418-2.193.837-4.448.819-6.681-.044-5.065.315-10.164-.295-15.192-.425-3.502-.868-6.952-1.567-10.409-3.502-17.281-10.39-34.011-20.344-48.587-5.233-7.66-11.393-14.846-18.742-20.555-2.457-1.909-5.054-3.645-7.8-5.108-1.029-.547-2.079-1.057-3.15-1.519-.409-.177-1.237-.509-1.237-.509"/>
      <path d="M757.531 154.588c3.734-4.816 6.391-10.249 7.793-16.189.479-2.036 1.142-4.258 1.133-6.334-.021-5.326.385-10.636-.17-15.979-.166-1.596-.488-3.174-.762-4.755-.625-3.632-1.642-7.232-2.791-10.73-4.624-14.08-12.556-27.108-22.69-37.898-6.999-7.449-15.151-13.923-24.27-18.581-3.231-1.651-6.574-3.038-10.017-4.177-.812-.268-1.635-.515-2.46-.737-.541-.145-1.082-.286-1.625-.425-.268-.067-.808-.191-.808-.191"/>
      <path d="M771.234 128.142c.463-1.9 1.444-5.091 1.435-7.121-.051-11.189.513-11.719-.956-19.299-.643-3.307-1.71-6.549-2.878-9.701-5.657-15.268-16.661-28.507-29.777-37.979-7.553-5.454-15.961-9.756-24.858-12.535-2.833-.885-5.694-1.57-8.6-2.164-1.051-.216-3.142-.529-3.791-.626-.313-.048-.943-.125-.943-.125"/>
      <path d="M771.986 91.646c-6.021-24.541-27.235-42.861-50.997-49.71-6.582-1.898-13.276-2.974-20.124-3.343m-41.038 130.316c7.723 5.119 16.653 8.524 25.789 10.057 3.675.615 7.489 1.29 11.215 1.266 3.802-.023 7.626.205 11.403-.22.843-.094 4.765-.491 6.711-.842 9.547-1.726 18.876-4.78 26.961-10.261"/>
      <path d="M638.723 146.891c8.229 12.784 23.017 19.832 37.353 23.366 2.991.738 6.031 1.373 9.086 1.788 1.791.244 3.585.466 5.381.661 7.899.851 14.999.678 23.264-.286 1.78-.207 3.553-.502 5.323-.79 3.428-.553 6.838-1.38 10.172-2.35 12.882-3.741 26.428-10.626 33.71-22.39"/>
      <path d="M629.311 123.262c.521 2.017 1.077 3.926 1.976 5.811 6.501 13.635 23.024 21.628 36.796 25.587 2.717.78 5.464 1.421 8.227 2.013 2.842.607 5.8 1.127 8.686 1.432 2.24.235 4.475.506 6.722.668 8.112.583 8.977.756 26.396-.852 6.997-.645 13.986-2.565 20.619-4.87 13.984-4.861 30.14-14.204 33.691-29.789"/>
      <path d="M628.325 99.633c.136 3.479-.088 5.525.922 8.471 2.024 5.915 6.534 10.671 11.464 14.339 9.686 7.201 21.521 11.011 33.201 13.471 2.849.598 5.789 1.106 8.677 1.436 1.996.227 3.995.408 5.988.65 8.998 1.094 16.964.745 25.987-.13.249-.023.501-.046.752-.075 8.519-1.013 16.912-2.493 25.08-5.163 2.412-.79 4.793-1.67 7.13-2.657 9.999-4.222 21.747-11.44 25.154-22.465.872-2.83.762-4.794.728-7.878"/>
      <path d="M634.608 77.615c-.696 1.728-1.449 3.602-1.38 5.51.043 1.208.07 2.81.46 4.076 2.983 9.661 13.399 15.385 22.216 18.86 2.09.823 4.213 1.557 6.359 2.218 2.715.836 5.463 1.537 8.231 2.169 3.823.873 7.726 1.575 11.62 2.017 6.398.723 11.195.901 18 1.171 5.561.221 11.205-.172 16.709-.843 8.779-1.073 17.47-2.646 25.84-5.563 2.035-.706 4.042-1.487 6.012-2.36 9.201-4.072 20.998-11.608 19.689-23.209-.158-1.399-.658-2.772-1.242-4.046m-12.266-18.412c-.145-.162-.288-.322-.433-.485-.004-.004-.009-.005-.011-.01"/>
      <path d="M647.319 58.708c-.944 1.083-1.813 2.19-2.425 3.502-1.789 3.846-.486 7.973 2.188 10.972 4.159 4.664 10.416 7.361 16.225 9.331 18.322 6.203 39.286 6.446 58.047 3.984 2.699-.355 5.42-.872 8.072-1.492 8.281-1.936 18.823-5.054 24.864-11.43 1.146-1.208 3.348-4.181 3.296-5.938-.042-1.453-.152-2.906-.318-4.352-.111-.961-.86-1.975-1.395-2.76-.313-.458-1.017-1.322-1.017-1.322m-14.411-11.342c-1.494-1.476-2.902-2.667-4.733-3.662"/>
      <path d="M666.021 44.199c-1.959 1.09-3.939 2.386-5.194 4.29-.169.256-.826 1.406-.816 1.766.042 1.231.198 2.465.475 3.664.302 1.301 2.974 3.307 4.157 4.057 5.979 3.792 16.001 6.002 22.879 6.585 2.758.234 5.514.654 8.282.646 3.87-.011 7.739-.036 11.61-.072 2.979-.027 5.967-.394 8.914-.842 6.929-1.053 14.301-2.396 20.393-6.088 1.692-1.027 3.373-2.305 4.389-4.039.166-.282.745-1.463.701-1.847-.135-1.219-.398-2.427-.759-3.6-.102-.335-.606-.859-.606-.859"/>
      <path d="M721.922 40.628c-.586-.528-1.146-1.087-1.757-1.587-1.152-.94-3.389-1.59-4.808-1.962-8.52-2.236-14.282-1.239-24.375-.982-2.146.055-7.296 1.574-9.252 2.845-.83.541-2.799 1.979-2.316 3.275.231.621.592 1.202 1.014 1.714 1.512 1.837 6.568 3.091 8.803 3.499 1.104.2 2.201.543 3.324.536 6.102-.049 12.205-.096 18.305-.243 1.27-.03 2.498-.468 3.733-.762 2.045-.481 5.058-1.386 6.593-2.92.519-.518.958-.967 1.112-1.708.12-.571-.376-1.705-.376-1.705"/>
    </g>
  </g>
</svg>