<?xml version="1.0" encoding="UTF-8"?>
<!DOCTYPE svg PUBLIC "-//W3C//DTD SVG 1.1//EN" "http://www.w3.org/Graphics/SVG/1.1/DTD/svg11.dtd">
<svg xmlns="http://www.w3.org/2000/svg" version="1.1" width="96px" height="96px" style="shape-rendering:geometricPrecision; text-rendering:geometricPrecision; image-rendering:optimizeQuality; fill-rule:evenodd; clip-rule:evenodd" xmlns:xlink="http://www.w3.org/1999/xlink">
<g><path style="opacity:1" fill="#36474e" d="M 51.5,7.5 C 48.8333,7.5 46.1667,7.5 43.5,7.5C 43.5,5.5 43.5,3.5 43.5,1.5C 46.1667,1.5 48.8333,1.5 51.5,1.5C 51.5,3.5 51.5,5.5 51.5,7.5 Z"/></g>
<g><path style="opacity:0.933" fill="#37474f" d="M 29.5,10.5 C 28.8333,10.5 28.5,10.8333 28.5,11.5C 21.8333,16.1667 16.1667,21.8333 11.5,28.5C 10.8333,28.5 10.5,28.8333 10.5,29.5C 9.20577,30.2899 8.0391,31.2899 7,32.5C 1.37882,24.9431 1.37882,17.2765 7,9.5C 14.3634,2.98172 22.5301,1.81506 31.5,6C 31.8333,6.33333 32.1667,6.66667 32.5,7C 31.2899,8.0391 30.2899,9.20577 29.5,10.5 Z"/></g>
<g><path style="opacity:0.943" fill="#37464e" d="M 84.5,29.5 C 84.5,28.8333 84.1667,28.5 83.5,28.5C 78.8333,21.8333 73.1667,16.1667 66.5,11.5C 66.5,10.8333 66.1667,10.5 65.5,10.5C 64.7101,9.20577 63.7101,8.0391 62.5,7C 70.1013,2.37877 77.768,2.37877 85.5,7C 91.8465,14.2312 93.1799,22.3979 89.5,31.5C 89.1667,31.8333 88.8333,32.1667 88.5,32.5C 87.1482,31.4756 85.8149,30.4756 84.5,29.5 Z"/></g>
<g><path style="opacity:0.962" fill="#c52a29" d="M 43.5,7.5 C 46.1667,7.5 48.8333,7.5 51.5,7.5C 56.3091,7.86918 60.9757,8.86918 65.5,10.5C 66.1667,10.5 66.5,10.8333 66.5,11.5C 73.1667,16.1667 78.8333,21.8333 83.5,28.5C 84.1667,28.5 84.5,28.8333 84.5,29.5C 90.9652,47.4281 87.9652,63.4281 75.5,77.5C 72.6298,78.4333 70.2964,80.1 68.5,82.5C 54.5,89.1667 40.5,89.1667 26.5,82.5C 24.7036,80.1 22.3702,78.4333 19.5,77.5C 7.03479,63.4281 4.03479,47.4281 10.5,29.5C 11.1667,29.5 11.5,29.1667 11.5,28.5C 16.1667,21.8333 21.8333,16.1667 28.5,11.5C 29.1667,11.5 29.5,11.1667 29.5,10.5C 34.0243,8.86918 38.6909,7.86918 43.5,7.5 Z"/></g>
<g><path style="opacity:1" fill="#edebeb" d="M 40.5,15.5 C 67.3389,14.8381 80.1722,27.8381 79,54.5C 72.7344,72.8875 59.9011,81.0542 40.5,79C 22.1276,72.7715 13.9609,59.9382 16,40.5C 19.6829,27.6514 27.8496,19.3181 40.5,15.5 Z"/></g>
<g><path style="opacity:1" fill="#0b0909" d="M 45.5,51.5 C 45.1667,50.5 44.5,49.8333 43.5,49.5C 45.3496,40.3702 46.0162,31.0368 45.5,21.5C 46.8333,21.5 48.1667,21.5 49.5,21.5C 49.3336,29.1739 49.5003,36.8406 50,44.5C 53.2392,49.5804 57.0725,54.2471 61.5,58.5C 60.8333,59.8333 59.8333,60.8333 58.5,61.5C 55.0154,58.516 51.682,55.3493 48.5,52C 47.552,51.5172 46.552,51.3505 45.5,51.5 Z"/></g>
<g><path style="opacity:1" fill="#b92525" d="M 46.5,45.5 C 49.8606,46.2032 50.1939,47.5365 47.5,49.5C 45.3576,48.5629 45.0243,47.2296 46.5,45.5 Z"/></g>
<g><path style="opacity:1" fill="#e76058" d="M 43.5,49.5 C 44.5,49.8333 45.1667,50.5 45.5,51.5C 40.187,56.4783 34.8537,61.4783 29.5,66.5C 28.479,65.9984 28.3123,65.3317 29,64.5C 34.0365,59.6313 38.8698,54.6313 43.5,49.5 Z"/></g>
<g><path style="opacity:0.918" fill="#384352" d="M 19.5,77.5 C 22.3702,78.4333 24.7036,80.1 26.5,82.5C 24.0365,84.4611 21.7032,86.6278 19.5,89C 13.8236,90.4041 11.9902,88.5708 14,83.5C 16.0396,81.6298 17.8729,79.6298 19.5,77.5 Z"/></g>
<g><path style="opacity:0.917" fill="#3a464f" d="M 75.5,77.5 C 78.1915,80.1951 80.5248,83.1951 82.5,86.5C 80.9268,89.193 78.5934,90.0263 75.5,89C 73.2968,86.6278 70.9635,84.4611 68.5,82.5C 70.2964,80.1 72.6298,78.4333 75.5,77.5 Z"/></g>
</svg>
