<?xml version="1.0" encoding="UTF-8"?>
<svg version="1.1" xmlns="http://www.w3.org/2000/svg" width="96" height="96">
<path d="M0 0 C2.64 0 5.28 0 8 0 C8 2.64 8 5.28 8 8 C10.64 8 13.28 8 16 8 C16 5.36 16 2.72 16 0 C18.64 0 21.28 0 24 0 C24 2.64 24 5.28 24 8 C26.64 8 29.28 8 32 8 C32 5.36 32 2.72 32 0 C34.64 0 37.28 0 40 0 C40 2.64 40 5.28 40 8 C41.2375 7.9175 42.475 7.835 43.75 7.75 C46.76252076 7.7713654 47.84348817 7.9060929 50.5 9.5 C52.68405234 13.14008723 52.28023018 15.79654733 52 20 C54.64 20 57.28 20 60 20 C60 22.64 60 25.28 60 28 C57.36 28 54.72 28 52 28 C52 30.64 52 33.28 52 36 C54.64 36 57.28 36 60 36 C60 38.64 60 41.28 60 44 C57.36 44 54.72 44 52 44 C52 46.64 52 49.28 52 52 C54.64 52 57.28 52 60 52 C60 54.64 60 57.28 60 60 C57.36 60 54.72 60 52 60 C52.0825 61.2375 52.165 62.475 52.25 63.75 C52.2286346 66.76252076 52.0939071 67.84348817 50.5 70.5 C46.85991277 72.68405234 44.20345267 72.28023018 40 72 C40 74.64 40 77.28 40 80 C37.36 80 34.72 80 32 80 C32 77.36 32 74.72 32 72 C29.36 72 26.72 72 24 72 C24 74.64 24 77.28 24 80 C21.36 80 18.72 80 16 80 C16 77.36 16 74.72 16 72 C13.36 72 10.72 72 8 72 C8 74.64 8 77.28 8 80 C5.36 80 2.72 80 0 80 C0 77.36 0 74.72 0 72 C-1.2375 72.0825 -2.475 72.165 -3.75 72.25 C-6.76252076 72.2286346 -7.84348817 72.0939071 -10.5 70.5 C-12.68405234 66.85991277 -12.28023018 64.20345267 -12 60 C-14.64 60 -17.28 60 -20 60 C-20 57.36 -20 54.72 -20 52 C-17.36 52 -14.72 52 -12 52 C-12 49.36 -12 46.72 -12 44 C-14.64 44 -17.28 44 -20 44 C-20 41.36 -20 38.72 -20 36 C-17.36 36 -14.72 36 -12 36 C-12 33.36 -12 30.72 -12 28 C-14.64 28 -17.28 28 -20 28 C-20 25.36 -20 22.72 -20 20 C-17.36 20 -14.72 20 -12 20 C-12.0825 18.7625 -12.165 17.525 -12.25 16.25 C-12.2286346 13.23747924 -12.0939071 12.15651183 -10.5 9.5 C-6.85991277 7.31594766 -4.20345267 7.71976982 0 8 C0 5.36 0 2.72 0 0 Z " fill="#4BAE50" transform="translate(28,8)"/>
<path d="M0 0 C0.7027002 -0.00191345 1.40540039 -0.0038269 2.12939453 -0.00579834 C3.61556354 -0.00715975 5.10174445 -0.00346632 6.58789062 0.00488281 C8.86615646 0.01558346 11.14363377 0.00498661 13.421875 -0.0078125 C14.86458508 -0.0064909 16.30729466 -0.00392849 17.75 0 C19.06742188 0.00225586 20.38484375 0.00451172 21.7421875 0.00683594 C24.875 0.265625 24.875 0.265625 26.875 2.265625 C27.13378906 4.6640625 27.13378906 4.6640625 27.140625 7.640625 C27.14449219 9.24164063 27.14449219 9.24164063 27.1484375 10.875 C27.14070313 11.99390625 27.13296875 13.1128125 27.125 14.265625 C27.13660156 15.94398437 27.13660156 15.94398437 27.1484375 17.65625 C27.14585938 18.72359375 27.14328125 19.7909375 27.140625 20.890625 C27.13836914 21.87289062 27.13611328 22.85515625 27.13378906 23.8671875 C26.875 26.265625 26.875 26.265625 24.875 28.265625 C21.7421875 28.52441406 21.7421875 28.52441406 17.75 28.53125 C17.0472998 28.53316345 16.34459961 28.5350769 15.62060547 28.53704834 C14.13443646 28.53840975 12.64825555 28.53471632 11.16210938 28.52636719 C8.88384354 28.51566654 6.60636623 28.52626339 4.328125 28.5390625 C2.88541492 28.5377409 1.44270534 28.53517849 0 28.53125 C-1.31742188 28.52899414 -2.63484375 28.52673828 -3.9921875 28.52441406 C-7.125 28.265625 -7.125 28.265625 -9.125 26.265625 C-9.38378906 23.8671875 -9.38378906 23.8671875 -9.390625 20.890625 C-9.39320312 19.82328125 -9.39578125 18.7559375 -9.3984375 17.65625 C-9.38683594 15.97789063 -9.38683594 15.97789063 -9.375 14.265625 C-9.38273437 13.14671875 -9.39046875 12.0278125 -9.3984375 10.875 C-9.39585938 9.80765625 -9.39328125 8.7403125 -9.390625 7.640625 C-9.38836914 6.65835938 -9.38611328 5.67609375 -9.38378906 4.6640625 C-8.7805081 -0.92709998 -4.61555765 0.00790335 0 0 Z " fill="#37474F" transform="translate(39.125,33.734375)"/>
<path d="M0 0 C2.64 0 5.28 0 8 0 C8 2.64 8 5.28 8 8 C5.36 8 2.72 8 0 8 C0 5.36 0 2.72 0 0 Z " fill="#FF9800" transform="translate(60,80)"/>
<path d="M0 0 C2.64 0 5.28 0 8 0 C8 2.64 8 5.28 8 8 C5.36 8 2.72 8 0 8 C0 5.36 0 2.72 0 0 Z " fill="#FF9800" transform="translate(44,80)"/>
<path d="M0 0 C2.64 0 5.28 0 8 0 C8 2.64 8 5.28 8 8 C5.36 8 2.72 8 0 8 C0 5.36 0 2.72 0 0 Z " fill="#FF9800" transform="translate(28,80)"/>
<path d="M0 0 C2.64 0 5.28 0 8 0 C8 2.64 8 5.28 8 8 C5.36 8 2.72 8 0 8 C0 5.36 0 2.72 0 0 Z " fill="#FF9800" transform="translate(80,60)"/>
<path d="M0 0 C2.64 0 5.28 0 8 0 C8 2.64 8 5.28 8 8 C5.36 8 2.72 8 0 8 C0 5.36 0 2.72 0 0 Z " fill="#FF9800" transform="translate(8,60)"/>
<path d="M0 0 C2.64 0 5.28 0 8 0 C8 2.64 8 5.28 8 8 C5.36 8 2.72 8 0 8 C0 5.36 0 2.72 0 0 Z " fill="#FF9800" transform="translate(80,44)"/>
<path d="M0 0 C2.64 0 5.28 0 8 0 C8 2.64 8 5.28 8 8 C5.36 8 2.72 8 0 8 C0 5.36 0 2.72 0 0 Z " fill="#FF9800" transform="translate(8,44)"/>
<path d="M0 0 C2.64 0 5.28 0 8 0 C8 2.64 8 5.28 8 8 C5.36 8 2.72 8 0 8 C0 5.36 0 2.72 0 0 Z " fill="#FF9800" transform="translate(80,28)"/>
<path d="M0 0 C2.64 0 5.28 0 8 0 C8 2.64 8 5.28 8 8 C5.36 8 2.72 8 0 8 C0 5.36 0 2.72 0 0 Z " fill="#FF9800" transform="translate(8,28)"/>
<path d="M0 0 C2.64 0 5.28 0 8 0 C8 2.64 8 5.28 8 8 C5.36 8 2.72 8 0 8 C0 5.36 0 2.72 0 0 Z " fill="#FF9800" transform="translate(60,8)"/>
<path d="M0 0 C2.64 0 5.28 0 8 0 C8 2.64 8 5.28 8 8 C5.36 8 2.72 8 0 8 C0 5.36 0 2.72 0 0 Z " fill="#FF9800" transform="translate(44,8)"/>
<path d="M0 0 C2.64 0 5.28 0 8 0 C8 2.64 8 5.28 8 8 C5.36 8 2.72 8 0 8 C0 5.36 0 2.72 0 0 Z " fill="#FF9800" transform="translate(28,8)"/>
</svg>
