<?xml version="1.0" encoding="UTF-8"?>
<svg version="1.1" xmlns="http://www.w3.org/2000/svg" width="96" height="96">
<path d="M0 0 C2.24449812 1.24202933 4.43284436 2.55383883 6.62890625 3.87890625 C7.95577247 4.55835326 9.28721922 5.22921546 10.62890625 5.87890625 C11.55703125 5.01265625 11.55703125 5.01265625 12.50390625 4.12890625 C17.71145017 0.37947463 22.96924029 -2.07749267 29.44140625 -2.18359375 C33.30937206 -0.89427181 35.07934216 0.72944473 37.62890625 3.87890625 C38.88324083 7.64190999 38.73586047 11.15101534 38.69140625 15.06640625 C38.68689453 15.81599609 38.68238281 16.56558594 38.67773438 17.33789062 C38.66596979 19.18493008 38.6480349 21.03192838 38.62890625 22.87890625 C39.29277344 23.1934375 39.95664063 23.50796875 40.640625 23.83203125 C51.90352882 29.29084011 51.90352882 29.29084011 55.62890625 34.87890625 C56.29604045 39.45575714 56.31199785 43.54242269 54.19140625 47.69140625 C49.64038022 51.57642847 44.52841484 54.64537264 38.62890625 55.87890625 C38.72429687 56.65234375 38.8196875 57.42578125 38.91796875 58.22265625 C39.75180758 66.05686295 40.31500218 72.16577364 35.50390625 78.81640625 C31.92491757 81.3839416 28.96528729 82.28229053 24.62890625 81.87890625 C19.2475476 80.26180348 14.80391748 77.64988414 10.62890625 73.87890625 C8.54479122 74.8881061 6.53436515 75.93595078 4.55078125 77.1328125 C-0.53861593 80.19926584 -4.38238093 81.87890625 -10.37109375 81.87890625 C-14.22063796 80.64414679 -15.85010869 79.69601725 -18.02734375 76.28125 C-19.66046846 72.14621621 -19.71320149 68.88842314 -19.55859375 64.50390625 C-19.53829102 63.39982422 -19.53829102 63.39982422 -19.51757812 62.2734375 C-19.48254244 60.47493882 -19.42874663 58.67682203 -19.37109375 56.87890625 C-20.03496094 56.564375 -20.69882812 56.24984375 -21.3828125 55.92578125 C-32.64571632 50.46697239 -32.64571632 50.46697239 -36.37109375 44.87890625 C-37.04178116 40.27767864 -37.07746741 36.20335686 -34.87109375 32.06640625 C-30.16819879 27.95137316 -25.20275983 25.10001037 -19.37109375 22.87890625 C-19.42330078 21.25082031 -19.42330078 21.25082031 -19.4765625 19.58984375 C-19.50471763 18.14454683 -19.53201594 16.69923304 -19.55859375 15.25390625 C-19.58373047 14.54105469 -19.60886719 13.82820313 -19.63476562 13.09375 C-19.70107292 8.27542011 -19.03367532 5.05488914 -16.37109375 0.87890625 C-10.96153115 -3.02101097 -5.81967442 -2.75164177 0 0 Z M-12.05859375 4.50390625 C-15.10518267 7.61434583 -14.69202016 11.02454487 -14.68359375 15.19140625 C-14.60337228 17.42156302 -14.5067315 19.65143299 -14.37109375 21.87890625 C-6.028567 21.61099959 -6.028567 21.61099959 1.05078125 17.7421875 C2.74093301 15.51775224 4.25374877 13.30918456 5.62890625 10.87890625 C1.87587346 6.67096039 -1.15134483 4.71548457 -6.37109375 2.87890625 C-9.46665878 2.62019658 -9.46665878 2.62019658 -12.05859375 4.50390625 Z M21.69140625 4.62890625 C21.02238281 4.95375 20.35335937 5.27859375 19.6640625 5.61328125 C17.29262566 7.08803276 15.53506161 8.84908533 13.62890625 10.87890625 C16.31706118 15.62960915 18.6109276 19.25239428 23.98828125 20.921875 C27.2109336 21.38979286 30.37678945 21.72730381 33.62890625 21.87890625 C34.46359266 13.65259953 34.46359266 13.65259953 32.62109375 5.8359375 C31.21606732 4.29075811 31.21606732 4.29075811 28.62890625 2.87890625 C25.5528304 2.87890625 24.37397278 3.29019743 21.69140625 4.62890625 Z M8.62890625 14.87890625 C7.08723983 16.25376157 7.08723983 16.25376157 5.62890625 17.87890625 C5.62890625 18.53890625 5.62890625 19.19890625 5.62890625 19.87890625 C8.26890625 19.87890625 10.90890625 19.87890625 13.62890625 19.87890625 C12.83772721 17.87907091 12.83772721 17.87907091 11.62890625 15.87890625 C10.63890625 15.54890625 9.64890625 15.21890625 8.62890625 14.87890625 Z M6.4921875 23.62109375 C3.98630077 23.47339905 2.84049582 23.64340591 0.62890625 24.87890625 C-3.23617351 29.48953439 -7.47633661 34.70542932 -7.26953125 40.94140625 C-5.63491555 46.28588889 -3.19724896 50.78242485 0.62890625 54.87890625 C4.07136535 56.25924293 6.97344749 56.14371114 10.62890625 55.87890625 C11.33402344 55.96398437 12.03914063 56.0490625 12.765625 56.13671875 C15.27151173 56.28441345 16.41731668 56.11440659 18.62890625 54.87890625 C22.49398601 50.26827811 26.73414911 45.05238318 26.52734375 38.81640625 C24.89272805 33.47192361 22.45506146 28.97538765 18.62890625 24.87890625 C14.49358892 23.22075141 10.77095622 24.137362 6.4921875 23.62109375 Z M-12.37109375 26.87890625 C-12.02664494 29.3515739 -12.02664494 29.3515739 -11.37109375 31.87890625 C-10.71109375 32.20890625 -10.05109375 32.53890625 -9.37109375 32.87890625 C-8.38109375 30.56890625 -7.39109375 28.25890625 -6.37109375 25.87890625 C-10.14748695 25.58076385 -10.14748695 25.58076385 -12.37109375 26.87890625 Z M25.62890625 25.87890625 C26.61890625 27.85890625 27.60890625 29.83890625 28.62890625 31.87890625 C29.28890625 31.87890625 29.94890625 31.87890625 30.62890625 31.87890625 C30.95890625 30.22890625 31.28890625 28.57890625 31.62890625 26.87890625 C28.65890625 26.38390625 28.65890625 26.38390625 25.62890625 25.87890625 Z M-24.37109375 31.19140625 C-25.05171875 31.62066406 -25.73234375 32.04992188 -26.43359375 32.4921875 C-29.50511299 34.69055309 -31.16049989 35.93123387 -31.99609375 39.69140625 C-31.07841271 44.37157956 -28.2147794 46.28519967 -24.37109375 48.87890625 C-21.66277912 50.42946806 -20.56664604 50.87890625 -17.37109375 50.87890625 C-14.11884395 44.7896024 -14.11884395 44.7896024 -13.73828125 38.05859375 C-14.71851704 34.85649019 -15.87435857 31.8723766 -17.37109375 28.87890625 C-20.70874428 28.87890625 -21.63213131 29.43286787 -24.37109375 31.19140625 Z M36.62890625 28.87890625 C33.37665645 34.9682101 33.37665645 34.9682101 32.99609375 41.69921875 C33.97632954 44.90132231 35.13217107 47.8854359 36.62890625 50.87890625 C41.16289322 50.34549602 43.98616708 48.57136564 47.62890625 45.87890625 C48.55703125 45.19828125 48.55703125 45.19828125 49.50390625 44.50390625 C50.83077438 42.80566206 50.83077438 42.80566206 51.25390625 40.06640625 C50.33622521 35.38623294 47.4725919 33.47261283 43.62890625 30.87890625 C40.92059162 29.32834444 39.82445854 28.87890625 36.62890625 28.87890625 Z M-10.37109375 46.87890625 C-12.64844385 49.69400618 -12.64844385 49.69400618 -12.37109375 52.87890625 C-9.40109375 53.37390625 -9.40109375 53.37390625 -6.37109375 53.87890625 C-7.44510483 50.96373333 -8.14919551 49.10080449 -10.37109375 46.87890625 Z M28.62890625 46.87890625 C27.14390625 50.34390625 27.14390625 50.34390625 25.62890625 53.87890625 C27.60890625 53.54890625 29.58890625 53.21890625 31.62890625 52.87890625 C31.28445744 50.4062386 31.28445744 50.4062386 30.62890625 47.87890625 C29.96890625 47.54890625 29.30890625 47.21890625 28.62890625 46.87890625 Z M-14.37109375 57.87890625 C-15.14714703 66.08019993 -15.14714703 66.08019993 -13.46875 73.95703125 C-11.40258557 76.25423643 -9.65349442 76.85965166 -6.62109375 77.06640625 C-2.03391205 75.39032063 1.69535203 72.73728898 5.62890625 69.87890625 C1.91227168 62.82165368 1.91227168 62.82165368 -4.60546875 58.953125 C-5.765625 58.82550781 -6.92578125 58.69789062 -8.12109375 58.56640625 C-9.2915625 58.42589844 -10.46203125 58.28539062 -11.66796875 58.140625 C-12.56 58.05425781 -13.45203125 57.96789062 -14.37109375 57.87890625 Z M18.41796875 62.015625 C16.70195786 64.24643915 15.11394363 66.48907788 13.62890625 68.87890625 C17.25524089 72.94479661 20.4199595 75.20460194 25.62890625 76.87890625 C28.78079037 76.80727252 30.0158263 76.48316491 32.2578125 74.2734375 C34.15389772 70.96204081 33.92155643 68.41431256 33.81640625 64.62890625 C33.78933594 63.365625 33.76226562 62.10234375 33.734375 60.80078125 C33.69957031 59.8365625 33.66476563 58.87234375 33.62890625 57.87890625 C27.96192367 57.87890625 22.67529556 57.90121198 18.41796875 62.015625 Z M5.62890625 59.87890625 C6.28890625 61.19890625 6.94890625 62.51890625 7.62890625 63.87890625 C8.94890625 63.87890625 10.26890625 63.87890625 11.62890625 63.87890625 C12.28890625 62.55890625 12.94890625 61.23890625 13.62890625 59.87890625 C10.98890625 59.87890625 8.34890625 59.87890625 5.62890625 59.87890625 Z " fill="#7EDEEA" transform="translate(38.37109375,8.12109375)"/>
<path d="M0 0 C2.5 1.5 2.5 1.5 4 4 C4.791013 8.02098277 4.62153384 10.96411027 2.5 14.5 C-1.03588973 16.62153384 -3.97901723 16.791013 -8 16 C-10.5 14.5 -10.5 14.5 -12 12 C-12.791013 7.97901723 -12.62153384 5.03588973 -10.5 1.5 C-6.96411027 -0.62153384 -4.02098277 -0.791013 0 0 Z " fill="#80DDEA" transform="translate(52,40)"/>
</svg>
