<?xml version="1.0" encoding="UTF-8"?>
<!DOCTYPE svg PUBLIC "-//W3C//DTD SVG 1.1//EN" "http://www.w3.org/Graphics/SVG/1.1/DTD/svg11.dtd">
<svg xmlns="http://www.w3.org/2000/svg" version="1.1" width="96px" height="96px" style="shape-rendering:geometricPrecision; text-rendering:geometricPrecision; image-rendering:optimizeQuality; fill-rule:evenodd; clip-rule:evenodd" xmlns:xlink="http://www.w3.org/1999/xlink">
<g><path style="opacity:0.915" fill="#b0bec5" d="M 43.5,37.5 C 41.8333,39.8333 39.8333,41.8333 37.5,43.5C 30.466,36.2987 22.966,29.6321 15,23.5C 8.52027,11.3131 11.3536,8.47972 23.5,15C 29.6321,22.966 36.2987,30.466 43.5,37.5 Z"/></g>
<g><path style="opacity:0.958" fill="#607b8c" d="M 57.5,46.5 C 56.7611,46.631 56.0944,46.4643 55.5,46C 54.6006,44.3484 53.6006,42.8484 52.5,41.5C 51.8333,39.5 51.1667,37.5 50.5,35.5C 51.1408,34.5178 51.8075,33.5178 52.5,32.5C 49.1372,22.735 52.1372,15.9016 61.5,12C 65.5411,11.1735 69.5411,11.3401 73.5,12.5C 70.4127,15.912 67.4127,19.2453 64.5,22.5C 65.7509,27.9314 69.0842,30.4314 74.5,30C 77.3333,27.1667 80.1667,24.3333 83,21.5C 85.0875,28.7992 83.5875,35.2992 78.5,41C 73.578,43.6946 68.4113,44.1946 63,42.5C 60.9707,43.5504 59.1374,44.8838 57.5,46.5 Z"/></g>
<g><path style="opacity:1" fill="#fc9b08" d="M 50.5,35.5 C 51.1667,37.5 51.8333,39.5 52.5,41.5C 48.5,44.8333 44.8333,48.5 41.5,52.5C 39.2163,52.0248 37.2163,51.0248 35.5,49.5C 35.1961,48.8501 34.8627,48.1835 34.5,47.5C 35.5244,46.1482 36.5244,44.8149 37.5,43.5C 39.8333,41.8333 41.8333,39.8333 43.5,37.5C 45.5694,35.267 47.9028,34.6004 50.5,35.5 Z"/></g>
<g><path style="opacity:0.977" fill="#fec007" d="M 52.5,41.5 C 53.6006,42.8484 54.6006,44.3484 55.5,46C 56.0944,46.4643 56.7611,46.631 57.5,46.5C 59.2941,48.7966 61.2941,50.9633 63.5,53C 70.1201,57.2301 76.2868,62.0634 82,67.5C 85.6151,76.9354 82.4484,82.602 72.5,84.5C 70.4595,83.7643 68.4595,82.9309 66.5,82C 60.3339,73.6717 54.0005,65.505 47.5,57.5C 45.8693,55.3567 43.8693,53.69 41.5,52.5C 44.8333,48.5 48.5,44.8333 52.5,41.5 Z"/></g>
<g><path style="opacity:0.974" fill="#607c8b" d="M 35.5,49.5 C 37.2163,51.0248 39.2163,52.0248 41.5,52.5C 43.8693,53.69 45.8693,55.3567 47.5,57.5C 39.6998,65.4692 32.0331,73.6359 24.5,82C 13.3333,85.5 9.5,81.6667 13,70.5C 20.6709,63.6617 28.1709,56.6617 35.5,49.5 Z M 17.5,73.5 C 18.8333,73.5 20.1667,73.5 21.5,73.5C 21.5,74.8333 21.5,76.1667 21.5,77.5C 20.1667,77.5 18.8333,77.5 17.5,77.5C 17.5,76.1667 17.5,74.8333 17.5,73.5 Z"/></g>
</svg>
